<svg width="24" height="25" viewBox="0 0 24 25" fill="none" xmlns="http://www.w3.org/2000/svg">
<path d="M18.242 19.5H5.75798C5.91879 19.1022 6.0013 18.6771 6.00098 18.248C5.97998 17.3065 5.58647 16.4117 4.90674 15.7599C4.22701 15.1081 3.31654 14.7525 2.37498 14.771C1.90476 14.7701 1.43861 14.858 1.00098 15.03L1.00098 10.037C1.43834 10.2104 1.90451 10.2996 2.37498 10.3C3.31721 10.3185 4.22828 9.9623 4.90812 9.30965C5.58797 8.65699 5.98102 7.76121 6.00098 6.819C6.00135 6.36547 5.90913 5.91664 5.72998 5.5H18.27C18.0915 5.91679 18 6.36561 18.001 6.819C18.0209 7.76085 18.4137 8.65633 19.0931 9.30893C19.7725 9.96153 20.6831 10.318 21.625 10.3C22.0962 10.2995 22.563 10.2099 23.001 10.036V15.03C22.563 14.8578 22.0965 14.77 21.626 14.771C20.6846 14.7528 19.7744 15.1085 19.0949 15.7603C18.4153 16.4121 18.022 17.3067 18.001 18.248C18.0001 18.6769 18.0819 19.102 18.242 19.5ZM10.294 14.688C10.1107 14.688 9.93495 14.7608 9.80537 14.8904C9.67578 15.02 9.60298 15.1957 9.60298 15.379C9.60298 15.5623 9.67578 15.738 9.80537 15.8676C9.93495 15.9972 10.1107 16.07 10.294 16.07H12.085C12.7073 16.0821 13.309 15.8466 13.7579 15.4154C14.2068 14.9841 14.4661 14.3923 14.479 13.77C14.4648 13.1485 14.2049 12.558 13.7562 12.1279C13.3074 11.6977 12.7065 11.4629 12.085 11.475H11.415C11.2914 11.4808 11.1678 11.4614 11.0519 11.4181C10.936 11.3748 10.83 11.3084 10.7405 11.223C10.651 11.1375 10.5797 11.0348 10.531 10.921C10.4823 10.8072 10.4572 10.6848 10.4572 10.561C10.4572 10.4372 10.4823 10.3148 10.531 10.201C10.5797 10.0872 10.651 9.98449 10.7405 9.89905C10.83 9.81361 10.936 9.74722 11.0519 9.70389C11.1678 9.66057 11.2914 9.64122 11.415 9.647H13.207C13.3902 9.647 13.566 9.5742 13.6956 9.44461C13.8252 9.31502 13.898 9.13926 13.898 8.956C13.898 8.77274 13.8252 8.59698 13.6956 8.46739C13.566 8.3378 13.3902 8.265 13.207 8.265H11.415C10.7928 8.25294 10.1913 8.48826 9.74242 8.91929C9.29357 9.35032 9.03411 9.94184 9.02098 10.564C9.01414 11.0491 9.16611 11.5231 9.45371 11.9138C9.74131 12.3045 10.1488 12.5904 10.614 12.728C10.8732 12.809 11.1425 12.8534 11.414 12.86H12.084C12.2076 12.8542 12.3311 12.8736 12.447 12.9169C12.563 12.9602 12.6689 13.0266 12.7584 13.112C12.848 13.1975 12.9192 13.3002 12.9679 13.414C13.0166 13.5278 13.0417 13.6502 13.0417 13.774C13.0417 13.8978 13.0166 14.0202 12.9679 14.134C12.9192 14.2478 12.848 14.3505 12.7584 14.436C12.6689 14.5214 12.563 14.5878 12.447 14.6311C12.3311 14.6744 12.2076 14.6938 12.084 14.688H10.294Z" fill="black"/>
<path d="M21 5.5H3C1.89543 5.5 1 6.39543 1 7.5V17.5C1 18.6046 1.89543 19.5 3 19.5H21C22.1046 19.5 23 18.6046 23 17.5V7.5C23 6.39543 22.1046 5.5 21 5.5Z" stroke="black" stroke-width="2" stroke-linecap="round" stroke-linejoin="round"/>
</svg>
