<svg width="16" height="16" viewBox="0 0 16 16" fill="none" xmlns="http://www.w3.org/2000/svg">
<path d="M0 8C0 3.58172 3.58172 0 8 0C12.4183 0 16 3.58172 16 8C16 12.4183 12.4183 16 8 16C3.58172 16 0 12.4183 0 8Z" fill="#11847E"/>
<path fill-rule="evenodd" clip-rule="evenodd" d="M7.99977 2.66663C7.41067 2.66663 6.93311 3.14419 6.93311 3.73329V9.06663C6.93311 9.65573 7.41067 10.1333 7.99977 10.1333C8.58888 10.1333 9.06644 9.65573 9.06644 9.06663V3.73329C9.06644 3.14419 8.58888 2.66663 7.99977 2.66663ZM7.99977 11.2C7.41067 11.2 6.93311 11.6775 6.93311 12.2666C6.93311 12.8557 7.41067 13.3333 7.99977 13.3333C8.58888 13.3333 9.06644 12.8557 9.06644 12.2666C9.06644 11.6775 8.58888 11.2 7.99977 11.2Z" fill="#F1F5FA"/>
</svg>
