<svg width="11" height="10" viewBox="0 0 11 10" fill="none" xmlns="http://www.w3.org/2000/svg">
<path opacity="0.999" d="M-0.000488281 5.08181V10H5.66751C9.31851 10 10.9995 7.95001 10.9995 5.18471C10.9947 4.4771 10.8459 3.77784 10.5622 3.12947C10.2784 2.48109 9.86569 1.89714 9.349 1.4131C8.83231 0.929059 8.22248 0.555047 7.55659 0.313802C6.89071 0.0725566 6.18267 -0.0308833 5.47552 0.00977017C4.77869 -0.0331549 4.08039 0.0656659 3.4229 0.300242C2.76542 0.534819 2.16244 0.900272 1.65047 1.37447C1.13851 1.84867 0.728209 2.42175 0.444427 3.059C0.160645 3.69625 0.00928508 4.38441 -0.000488281 5.08181Z" fill="#F42766"/>
</svg>
