<svg width="11" height="11" viewBox="0 0 11 11" fill="none" xmlns="http://www.w3.org/2000/svg">
<g clip-path="url(#clip0)">
<path opacity="0.999" d="M0 5.58181V10.5H5.668C9.319 10.5 11 8.45001 11 5.68471C10.9952 4.9771 10.8464 4.27784 10.5627 3.62947C10.2789 2.98109 9.86618 2.39714 9.34949 1.9131C8.8328 1.42906 8.22297 1.05505 7.55708 0.813802C6.89119 0.572557 6.18316 0.469117 5.47601 0.50977C4.77918 0.466845 4.08087 0.565666 3.42339 0.800242C2.76591 1.03482 2.16293 1.40027 1.65096 1.87447C1.139 2.34867 0.728698 2.92175 0.444916 3.559C0.161134 4.19625 0.00977336 4.88441 0 5.58181Z" fill="black"/>
</g>
<defs>
<clipPath id="clip0">
<rect width="11" height="10" fill="white" transform="translate(0 0.5)"/>
</clipPath>
</defs>
</svg>

<svg xmlns="http://www.w3.org/2000/svg" fill="none" viewBox="0 0 11 11">
  <defs/>
  <g clip-path="url(#clip0)">
    <path fill="#000" d="M0 5.582V10.5h5.668C9.319 10.5 11 8.45 11 5.685A5.215 5.215 0 007.557.814 5.229 5.229 0 005.476.51 5.164 5.164 0 00.445 3.559 5.15 5.15 0 000 5.582z" opacity=".999"/>
  </g>
  <defs>
    <clipPath id="clip0">
      <path fill="#fff" d="M0 0h11v10H0z" transform="translate(0 .5)"/>
    </clipPath>
  </defs>
</svg>