<svg width="24" height="25" viewBox="0 0 24 25" fill="none" xmlns="http://www.w3.org/2000/svg">
<g clip-path="url(#clip0)">
<path d="M22.0985 19.0456V15.4886C22.0985 14.4822 21.6993 13.5169 20.9883 12.8044C20.2774 12.092 19.3129 11.6907 18.3065 11.6886H12.8905V5.95762C13.5219 5.7482 14.0581 5.32082 14.4031 4.75204C14.748 4.18326 14.8793 3.51025 14.7732 2.85354C14.6671 2.19683 14.3307 1.59934 13.8242 1.16809C13.3177 0.736837 12.6742 0.5 12.009 0.5C11.3438 0.5 10.7003 0.736837 10.1938 1.16809C9.68731 1.59934 9.3509 2.19683 9.24483 2.85354C9.13876 3.51025 9.26996 4.18326 9.61494 4.75204C9.95991 5.32082 10.4961 5.7482 11.1275 5.95762V11.6856H5.71051C4.70407 11.6877 3.73958 12.089 3.02867 12.8014C2.31776 13.5139 1.9185 14.4792 1.91851 15.4856V19.0356C1.28711 19.245 0.750908 19.6724 0.405935 20.2412C0.0609626 20.81 -0.0702398 21.483 0.0358297 22.1397C0.141899 22.7964 0.478311 23.3939 0.984806 23.8252C1.4913 24.2564 2.13479 24.4932 2.80001 24.4932C3.46522 24.4932 4.10871 24.2564 4.61521 23.8252C5.1217 23.3939 5.45811 22.7964 5.56418 22.1397C5.67025 21.483 5.53905 20.81 5.19408 20.2412C4.8491 19.6724 4.3129 19.245 3.68151 19.0356V15.4886C3.68111 15.2218 3.73328 14.9575 3.83503 14.7108C3.93679 14.4641 4.08613 14.2399 4.27454 14.0509C4.46295 13.8619 4.68674 13.7119 4.93312 13.6094C5.1795 13.507 5.44366 13.454 5.71051 13.4536H11.1275V19.0396C10.4961 19.249 9.95991 19.6764 9.61494 20.2452C9.26996 20.814 9.13876 21.487 9.24483 22.1437C9.3509 22.8004 9.68731 23.3979 10.1938 23.8292C10.7003 24.2604 11.3438 24.4972 12.009 24.4972C12.6742 24.4972 13.3177 24.2604 13.8242 23.8292C14.3307 23.3979 14.6671 22.8004 14.7732 22.1437C14.8793 21.487 14.748 20.814 14.4031 20.2452C14.0581 19.6764 13.5219 19.249 12.8905 19.0396V13.4536H18.3085C18.8473 13.4547 19.3637 13.6696 19.7442 14.0512C20.1246 14.4328 20.338 14.9498 20.3375 15.4886V19.0336C19.7047 19.2388 19.1656 19.6625 18.8168 20.2289C18.4679 20.7953 18.3322 21.4674 18.4338 22.1248C18.5354 22.7822 18.8677 23.382 19.3713 23.8167C19.8748 24.2514 20.5167 24.4926 21.1819 24.4971C21.8471 24.5016 22.4921 24.2692 23.0016 23.8414C23.511 23.4136 23.8515 22.8184 23.962 22.1625C24.0725 21.5065 23.9459 20.8326 23.6048 20.2615C23.2637 19.6904 22.7305 19.2593 22.1005 19.0456" fill="black"/>
</g>
<defs>
<clipPath id="clip0">
<rect width="24" height="24" fill="white" transform="translate(0 0.5)"/>
</clipPath>
</defs>
</svg>
