<svg width="45" height="41" viewBox="0 0 45 41" fill="none" xmlns="http://www.w3.org/2000/svg">
<path d="M22.5059 0.0874023C9.00179 0.0874023 0 9.55319 0 20.874C0 31.985 6.84768 40.2181 21.7217 40.2181H44.8123V20.4614C44.8128 9.14345 35.6159 0.0874023 22.5059 0.0874023ZM21.4034 29.7982C21.4034 33.5345 19.8144 34.9099 17.8069 34.9099C16.58 34.8562 15.3742 34.5562 14.2545 34.0262V29.2005C14.2545 25.8103 15.7977 24.1387 17.851 24.1387C19.8607 24.1387 21.4029 25.8103 21.4029 29.2005L21.4034 29.7982ZM30.6014 29.7982C30.6014 33.5345 29.0124 34.9099 27.0049 34.9099C25.7782 34.8562 24.5725 34.5562 23.453 34.0262V24.8831C23.453 21.4929 24.9957 19.8212 27.0495 19.8212C29.0598 19.8212 30.602 21.4929 30.602 24.8831L30.6014 29.7982ZM39.7618 29.7982C39.7618 33.5345 38.1728 34.9099 36.1652 34.9099C34.9384 34.8562 33.7325 34.5562 32.6128 34.0262V20.6081C32.6128 17.2178 34.1561 15.5462 36.2094 15.5462C38.2191 15.5462 39.7613 17.2178 39.7613 20.6081L39.7618 29.7982Z" fill="#F1F5FA"/>
</svg>
