<svg width="437" height="108" viewBox="0 0 437 108" fill="none" xmlns="http://www.w3.org/2000/svg">
<path d="M50.6962 0C20.2772 0 0 20.2431 0 44.4532C0 68.2148 15.4249 85.8218 48.9298 85.8218H100.943V43.5708C100.944 19.3669 80.2276 0 50.6962 0ZM48.2129 63.5382C48.2129 71.5286 44.6335 74.4698 40.1114 74.4698C37.3477 74.355 34.6316 73.7135 32.1093 72.5801V62.26C32.1093 55.0098 35.5855 51.435 40.2108 51.435C44.7379 51.435 48.2117 55.0098 48.2117 62.26L48.2129 63.5382ZM68.9321 63.5382C68.9321 71.5286 65.3527 74.4698 60.8306 74.4698C58.0673 74.355 55.3515 73.7135 52.8296 72.5801V53.0269C52.8296 45.7768 56.3047 42.2019 60.9312 42.2019C65.4595 42.2019 68.9333 45.7768 68.9333 53.0269L68.9321 63.5382ZM89.5666 63.5382C89.5666 71.5286 85.9872 74.4698 81.465 74.4698C78.7014 74.355 75.9851 73.7135 73.4628 72.5801V43.8846C73.4628 36.6344 76.9392 33.0596 81.5644 33.0596C86.0915 33.0596 89.5654 36.6344 89.5654 43.8846L89.5666 63.5382ZM437 7.5161V85.8267H430.05V9.62399L437 7.5161ZM399.948 30.7446C388.998 30.7446 379.939 38.2067 379.939 52.1911V65.3311C379.939 79.7297 388.777 87.1932 400.996 87.1932C406.36 87.1858 411.69 86.3342 416.789 84.6698L415.422 78.3633C410.75 79.8382 405.895 80.6521 400.997 80.7812C392.472 80.7812 386.889 76.0507 386.889 65.3311V60.9193H420.054V50.1984C420.05 38.6271 411.1 30.7446 399.943 30.7446H399.948ZM413.105 54.8137H386.883V52.1862C386.883 41.8845 392.359 37.1565 399.94 37.1565C407.624 37.1565 413.098 42.4127 413.098 50.1886L413.105 54.8137ZM369.632 32.111H376.788L358.367 85.8206H350.265L331.84 32.111H339L351.74 69.8447C352.583 72.2627 353.424 75.8351 354.266 78.9895C355.108 75.7309 356.054 72.2627 356.898 69.8447L369.632 32.111ZM307.52 30.7458C296.57 30.7458 287.511 38.208 287.511 52.1924V65.3311C287.511 79.7297 296.349 87.1932 308.568 87.1932C313.932 87.1858 319.261 86.3343 324.36 84.6698L322.994 78.3633C318.321 79.8351 313.466 80.6461 308.568 80.7727C300.04 80.7727 294.461 76.0422 294.461 65.3226V60.9107H327.624V50.1899C327.623 38.6271 318.674 30.7446 307.515 30.7446L307.52 30.7458ZM320.679 54.815H294.46V52.1874C294.46 41.8857 299.934 37.1577 307.515 37.1577C315.201 37.1577 320.674 42.414 320.674 50.1899L320.679 54.815ZM270.044 9.61909L276.99 7.5161V85.8267H270.044V9.61909ZM238.251 29.4847C225.725 29.4847 215.089 37.9984 215.089 52.5049V108H230.145V84.6661C233.02 86.2432 236.233 87.1077 239.513 87.187C250.674 87.187 261.305 79.6194 261.305 64.0652V52.5036C261.309 38.0021 250.672 29.4835 238.25 29.4835L238.251 29.4847ZM246.252 63.5394C246.252 71.5286 242.674 74.471 238.151 74.471C235.387 74.3561 232.672 73.7147 230.15 72.5813V53.0269C230.15 45.7768 233.624 42.2019 238.251 42.2019C242.778 42.2019 246.252 45.7768 246.252 53.0269V63.5394ZM187.198 29.4847C174.67 29.4847 164.036 37.9984 164.036 52.5049V108H179.09V84.6661C181.966 86.243 185.18 87.1075 188.46 87.187C199.62 87.187 210.253 79.6194 210.253 64.0652V52.5036C210.252 38.0021 199.619 29.4835 187.197 29.4835L187.198 29.4847ZM195.199 63.5394C195.199 71.5286 191.619 74.471 187.097 74.471C184.334 74.3561 181.618 73.7146 179.096 72.5813V53.0269C179.096 45.7768 182.573 42.2019 187.198 42.2019C191.725 42.2019 195.199 45.7768 195.199 53.0269V63.5394ZM137.301 29.4847C131.09 29.4847 124.878 31.1674 118.773 33.0596L122.035 44.9348C126.956 43.256 132.103 42.3345 137.301 42.2019C141.617 42.2019 144.144 44.9348 144.144 49.9815V51.2377H137.301C124.668 51.2377 115.819 56.7023 115.819 68.2638C115.819 79.1954 125.189 87.1833 137.507 87.1833C149.089 87.1833 159.195 79.1942 159.195 68.2638V49.9815C159.198 37.7864 150.355 29.4835 137.3 29.4835L137.301 29.4847ZM144.143 68.2724C144.121 69.1157 143.931 69.9463 143.585 70.716C143.239 71.4856 142.743 72.1789 142.127 72.7558C141.51 73.3326 140.785 73.7815 139.993 74.0764C139.201 74.3713 138.359 74.5062 137.514 74.4735C136.665 74.5323 135.812 74.4103 135.014 74.1156C134.215 73.8209 133.488 73.3602 132.881 72.7641C132.274 72.1679 131.8 71.4498 131.492 70.6573C131.184 69.8648 131.047 69.016 131.092 68.167C131.092 65.0125 132.354 61.7551 137.198 61.7551H144.147L144.143 68.2724Z" fill="#F1F5FA"/>
</svg>
