<svg width="194" height="48" viewBox="0 0 194 48" fill="none" xmlns="http://www.w3.org/2000/svg">
<path d="M22.4951 0C8.99747 0 0 8.99694 0 19.757C0 30.3177 6.84439 38.143 21.7113 38.143H44.7908V19.3648C44.7913 8.6075 35.5988 0 22.4951 0ZM21.3932 28.2392C21.3932 31.7905 19.8049 33.0977 17.7983 33.0977C16.572 33.0467 15.3668 32.7616 14.2476 32.2578V27.6711C14.2476 24.4488 15.7901 22.86 17.8424 22.86C19.8512 22.86 21.3926 24.4488 21.3926 27.6711L21.3932 28.2392ZM30.5868 28.2392C30.5868 31.7905 28.9985 33.0977 26.9919 33.0977C25.7658 33.0467 24.5607 32.7616 23.4417 32.2578V23.5675C23.4417 20.3452 24.9837 18.7564 27.0366 18.7564C29.0459 18.7564 30.5873 20.3452 30.5873 23.5675L30.5868 28.2392ZM39.7427 28.2392C39.7427 31.7905 38.1545 33.0977 36.1479 33.0977C34.9216 33.0467 33.7163 32.7616 32.5971 32.2578V19.5043C32.5971 16.282 34.1397 14.6931 36.192 14.6931C38.2008 14.6931 39.7422 16.282 39.7422 19.5043L39.7427 28.2392ZM193.907 3.34049V38.1452H190.823V4.27733L193.907 3.34049ZM177.466 13.6643C172.607 13.6643 168.588 16.9808 168.588 23.1961V29.0361C168.588 35.4354 172.509 38.7525 177.931 38.7525C180.311 38.7492 182.676 38.3708 184.939 37.631L184.332 34.8281C182.259 35.4836 180.105 35.8454 177.932 35.9028C174.149 35.9028 171.672 33.8003 171.672 29.0361V27.0752H186.388V22.3104C186.386 17.1676 182.414 13.6643 177.464 13.6643H177.466ZM183.304 24.3617H171.669V23.1939C171.669 18.6153 174.099 16.514 177.463 16.514C180.872 16.514 183.301 18.8501 183.301 22.3061L183.304 24.3617ZM164.014 14.2716H167.19L159.016 38.1425H155.421L147.245 14.2716H150.422L156.075 31.0421C156.449 32.1167 156.822 33.7045 157.196 35.1065C157.569 33.6582 157.989 32.1167 158.364 31.0421L164.014 14.2716ZM136.454 13.6648C131.595 13.6648 127.575 16.9813 127.575 23.1966V29.0361C127.575 35.4354 131.497 38.7525 136.919 38.7525C139.299 38.7493 141.664 38.3708 143.926 37.631L143.32 34.8281C141.247 35.4823 139.092 35.8427 136.919 35.899C133.135 35.899 130.659 33.7965 130.659 29.0322V27.0714H145.374V22.3066C145.374 17.1676 141.403 13.6643 136.451 13.6643L136.454 13.6648ZM142.292 24.3622H130.659V23.1944C130.659 18.6159 133.087 16.5145 136.451 16.5145C139.862 16.5145 142.29 18.8506 142.29 22.3066L142.292 24.3622ZM119.825 4.27515L122.907 3.34049V38.1452H119.825V4.27515ZM105.718 13.1043C100.159 13.1043 95.4401 16.8882 95.4401 23.3355V48H102.121V37.6294C103.396 38.3303 104.822 38.7145 106.277 38.7498C111.23 38.7498 115.947 35.3864 115.947 28.4734V23.335C115.949 16.8898 111.229 13.1038 105.717 13.1038L105.718 13.1043ZM109.268 28.2397C109.268 31.7905 107.68 33.0982 105.673 33.0982C104.447 33.0472 103.242 32.7621 102.123 32.2584V23.5675C102.123 20.3452 103.664 18.7564 105.718 18.7564C107.726 18.7564 109.268 20.3452 109.268 23.5675V28.2397ZM83.064 13.1043C77.505 13.1043 72.7865 16.8882 72.7865 23.3355V48H79.4664V37.6294C80.7426 38.3302 82.1684 38.7144 83.6239 38.7498C88.5761 38.7498 93.294 35.3864 93.294 28.4734V23.335C93.2935 16.8898 88.5755 13.1038 83.0634 13.1038L83.064 13.1043ZM86.6142 28.2397C86.6142 31.7905 85.0259 33.0982 83.0193 33.0982C81.7932 33.0471 80.5881 32.7621 79.4691 32.2584V23.5675C79.4691 20.3452 81.0116 18.7564 83.064 18.7564C85.0727 18.7564 86.6142 20.3452 86.6142 23.5675V28.2397ZM60.9235 13.1043C58.1675 13.1043 55.4114 13.8522 52.7022 14.6931L54.1499 19.971C56.3331 19.2249 58.6171 18.8153 60.9235 18.7564C62.8386 18.7564 63.96 19.971 63.96 22.214V22.7723H60.9235C55.3183 22.7723 51.3917 25.201 51.3917 30.3395C51.3917 35.198 55.5492 38.7482 61.015 38.7482C66.154 38.7482 70.6383 35.1974 70.6383 30.3395V22.214C70.64 16.794 66.7161 13.1038 60.9229 13.1038L60.9235 13.1043ZM63.9595 30.3433C63.9497 30.7181 63.8656 31.0873 63.712 31.4293C63.5584 31.7714 63.3384 32.0795 63.0648 32.3359C62.7912 32.5923 62.4694 32.7918 62.1181 32.9228C61.7668 33.0539 61.3929 33.1139 61.0183 33.0993C60.6413 33.1255 60.2631 33.0712 59.9087 32.9403C59.5542 32.8093 59.2316 32.6046 58.9622 32.3396C58.6928 32.0746 58.4828 31.7555 58.346 31.4033C58.2091 31.051 58.1486 30.6738 58.1685 30.2964C58.1685 28.8944 58.7284 27.4467 60.8777 27.4467H63.9611L63.9595 30.3433Z" fill="#185165"/>
</svg>
