<svg width="7" height="13" viewBox="0 0 7 13" fill="none" xmlns="http://www.w3.org/2000/svg">
<path fill-rule="evenodd" clip-rule="evenodd" d="M3.15488 12.5L4.02199 12.5C4.26143 12.5 4.45554 12.2885 4.45554 12.0275L4.45554 4.9408L6.15507 4.9408C6.23672 4.94085 6.31673 4.91577 6.38588 4.86845C6.45503 4.82113 6.51051 4.75349 6.54594 4.67332C6.58137 4.59315 6.5953 4.5037 6.58612 4.41529C6.57695 4.32687 6.54506 4.24307 6.4941 4.17353L3.92747 0.677391C3.88686 0.622041 3.83533 0.577357 3.77672 0.546651C3.71811 0.515943 3.6539 0.5 3.58887 0.5C3.52383 0.5 3.45963 0.515943 3.40102 0.546651C3.3424 0.577357 3.29088 0.62204 3.25026 0.677391L0.683632 4.17353C0.632725 4.243 0.600838 4.32672 0.591635 4.41505C0.582432 4.50338 0.596287 4.59276 0.631608 4.67289C0.666928 4.75303 0.722282 4.82068 0.791305 4.86807C0.860328 4.91546 0.940221 4.94067 1.0218 4.9408L2.72133 4.9408L2.72133 12.0275C2.72133 12.2885 2.91544 12.5 3.15488 12.5Z" fill="#00B4AA"/>
</svg>
