<svg width="7" height="13" viewBox="0 0 7 13" fill="none" xmlns="http://www.w3.org/2000/svg">
<path fill-rule="evenodd" clip-rule="evenodd" d="M4.02285 0.5L3.15575 0.5C2.9163 0.5 2.72219 0.711524 2.72219 0.972452L2.72219 8.0592H1.02267C0.941015 8.05915 0.861006 8.08423 0.791855 8.13155C0.722704 8.17887 0.667222 8.24651 0.631795 8.32668C0.596369 8.40685 0.58244 8.4963 0.59161 8.58471C0.600781 8.67313 0.632679 8.75693 0.683632 8.82647L3.25026 12.3226C3.29088 12.378 3.3424 12.4226 3.40102 12.4533C3.45963 12.4841 3.52383 12.5 3.58887 12.5C3.6539 12.5 3.71811 12.4841 3.77672 12.4533C3.83533 12.4226 3.88686 12.378 3.92747 12.3226L6.4941 8.82647C6.54501 8.757 6.5769 8.67328 6.5861 8.58495C6.5953 8.49662 6.58145 8.40724 6.54613 8.32711C6.51081 8.24697 6.45545 8.17932 6.38643 8.13193C6.31741 8.08454 6.23751 8.05933 6.15593 8.0592H4.4564L4.4564 0.972452C4.4564 0.711524 4.2623 0.5 4.02285 0.5Z" fill="#F42766"/>
</svg>
