<svg width="28" height="28" viewBox="0 0 28 28" fill="none" xmlns="http://www.w3.org/2000/svg">
<path d="M22.4865 26.7279L14.0012 18.2426L5.51594 26.7279C4.95333 27.2905 4.19027 27.6066 3.39462 27.6066C2.59897 27.6066 1.83591 27.2905 1.2733 26.7279C0.710692 26.1653 0.39462 25.4023 0.394619 24.6066C0.394619 23.811 0.710693 23.0479 1.2733 22.4853L9.75858 14L1.2733 5.51472C0.710693 4.95211 0.394619 4.18905 0.394619 3.3934C0.39462 2.59775 0.710692 1.83469 1.2733 1.27208C1.83591 0.709467 2.59897 0.393394 3.39462 0.393394C4.19027 0.393394 4.95333 0.709468 5.51594 1.27208L14.0012 9.75736L22.4865 1.27208C23.0491 0.709465 23.8122 0.393393 24.6078 0.393392C25.4035 0.393391 26.1665 0.709467 26.7291 1.27208C27.2918 1.83469 27.6078 2.59774 27.6078 3.39339C27.6078 4.18905 27.2918 4.95211 26.7291 5.51472L18.2439 14L26.7291 22.4853C27.2918 23.0479 27.6078 23.811 27.6078 24.6066C27.6078 25.4023 27.2918 26.1653 26.7291 26.7279C26.1665 27.2905 25.4035 27.6066 24.6078 27.6066C23.8122 27.6066 23.0491 27.2905 22.4865 26.7279Z" fill="#F1F5FA"/>
</svg>
