<svg width="24" height="24" viewBox="0 0 24 24" fill="none" xmlns="http://www.w3.org/2000/svg">
<path fill-rule="evenodd" clip-rule="evenodd" d="M5 3H14.2002C15.2373 3 16.09 3.78933 16.1903 4.8H19.0003C19.0659 4.8 19.1313 4.80127 19.1964 4.80378C19.0933 2.13331 16.8959 0 14.2002 0H5C2.23858 0 0 2.23857 0 5V14.2002C0 16.8959 2.13334 19.0934 4.80385 19.1964C4.80133 19.1313 4.80006 19.0659 4.80006 19.0002V16.1903C3.78937 16.09 3 15.2373 3 14.2002V5C3 3.89543 3.89543 3 5 3Z" fill="#F1F5FA"/>
<rect x="6.30029" y="6.2998" width="16.2002" height="16.2002" rx="3.5" stroke="#F1F5FA" stroke-width="3"/>
</svg>
