<svg width="24" height="25" viewBox="0 0 24 25" fill="none" xmlns="http://www.w3.org/2000/svg">
<g clip-path="url(#clip0)">
<path d="M19.9705 9.78611L12.6855 16.9061C12.5002 17.0859 12.2522 17.1865 11.994 17.1865C11.7358 17.1865 11.4878 17.0859 11.3025 16.9061C11.212 16.8184 11.1401 16.7134 11.091 16.5974C11.0419 16.4813 11.0166 16.3566 11.0166 16.2306C11.0166 16.1046 11.0419 15.9799 11.091 15.8639C11.1401 15.7478 11.212 15.6428 11.3025 15.5551L18.5895 8.43511C18.7745 8.25568 19.0222 8.15534 19.28 8.15534C19.5377 8.15534 19.7854 8.25568 19.9705 8.43511C20.061 8.52276 20.1331 8.62773 20.1823 8.74377C20.2314 8.85982 20.2568 8.98457 20.2568 9.11061C20.2568 9.23665 20.2314 9.3614 20.1823 9.47745C20.1331 9.59349 20.061 9.69846 19.9705 9.78611ZM11.0165 6.45911V7.51411C11.0246 7.76795 11.1311 8.00867 11.3136 8.18536C11.496 8.36205 11.74 8.46084 11.994 8.46084C12.2479 8.46084 12.4919 8.36205 12.6744 8.18536C12.8568 8.00867 12.9634 7.76795 12.9715 7.51411V6.45911C13.6891 6.52642 14.3976 6.66887 15.0855 6.88411C15.316 6.95904 15.5661 6.94606 15.7877 6.84766C16.0092 6.74926 16.1865 6.5724 16.2855 6.35111C16.3382 6.22868 16.3646 6.09655 16.363 5.96327C16.3614 5.82999 16.3319 5.69853 16.2762 5.5774C16.2206 5.45627 16.1402 5.34817 16.0401 5.26009C15.9401 5.17201 15.8227 5.10593 15.6955 5.06611C14.8101 4.78922 13.8963 4.61311 12.9715 4.54111C12.346 4.49025 11.7175 4.48658 11.0915 4.53011C11.0665 4.53011 11.0415 4.53711 11.0165 4.53811C7.80925 4.80485 4.8384 6.33162 2.75447 8.78411C1.24292 10.5502 0.30161 12.7326 0.0544736 15.0441C0.0374736 15.2011 0.0394736 15.3541 0.0294736 15.5101C-0.0731601 16.9093 0.0928228 18.3153 0.518474 19.6521C0.560993 19.7793 0.629093 19.8965 0.718582 19.9964C0.808072 20.0963 0.917058 20.1768 1.03883 20.233C1.16061 20.2892 1.2926 20.3199 1.42668 20.3232C1.56076 20.3265 1.69409 20.3023 1.81847 20.2521C2.04285 20.1655 2.22593 19.9969 2.33065 19.7804C2.43537 19.564 2.4539 19.3158 2.38247 19.0861C2.21335 18.5442 2.09287 17.9884 2.02247 17.4251H2.83647C2.96455 17.4293 3.09216 17.4076 3.2117 17.3615C3.33125 17.3153 3.4403 17.2456 3.53236 17.1564C3.62443 17.0673 3.69764 16.9606 3.74763 16.8426C3.79763 16.7246 3.82339 16.5978 3.82339 16.4696C3.82339 16.3415 3.79763 16.2146 3.74763 16.0966C3.69764 15.9786 3.62443 15.8719 3.53236 15.7828C3.4403 15.6936 3.33125 15.6239 3.2117 15.5778C3.09216 15.5316 2.96455 15.51 2.83647 15.5141H1.97447C2.00806 15.045 2.0749 14.5788 2.17447 14.1191C2.50235 12.6526 3.16993 11.2835 4.12347 10.1221L4.82847 10.8111C5.01343 10.9908 5.26112 11.0913 5.51897 11.0913C5.77682 11.0913 6.02452 10.9908 6.20947 10.8111C6.30017 10.7235 6.37231 10.6186 6.42157 10.5025C6.47084 10.3865 6.49623 10.2617 6.49623 10.1356C6.49623 10.0095 6.47084 9.88474 6.42157 9.76869C6.37231 9.65263 6.30017 9.54769 6.20947 9.46011L5.48647 8.75311C6.94423 7.53494 8.71677 6.75389 10.5995 6.50011C10.7405 6.48211 10.8805 6.47211 11.0205 6.45911H11.0165ZM23.9665 15.5091C23.9095 14.5929 23.7443 13.6866 23.4745 12.8091C23.432 12.6819 23.3639 12.5648 23.2744 12.4649C23.1849 12.365 23.0759 12.2844 22.9541 12.2282C22.8323 12.172 22.7003 12.1413 22.5663 12.138C22.4322 12.1348 22.2989 12.1589 22.1745 12.2091C21.9486 12.2928 21.7633 12.4596 21.6564 12.6754C21.5495 12.8912 21.5291 13.1398 21.5995 13.3701C21.8144 14.0657 21.951 14.7832 22.0065 15.5091H21.1505C21.0224 15.505 20.8948 15.5266 20.7752 15.5728C20.6557 15.6189 20.5466 15.6886 20.4546 15.7778C20.3625 15.8669 20.2893 15.9736 20.2393 16.0916C20.1893 16.2096 20.1636 16.3365 20.1636 16.4646C20.1636 16.5928 20.1893 16.7196 20.2393 16.8376C20.2893 16.9556 20.3625 17.0623 20.4546 17.1514C20.5466 17.2406 20.6557 17.3103 20.7752 17.3565C20.8948 17.4026 21.0224 17.4243 21.1505 17.4201H21.9615C21.8859 18.0442 21.7496 18.6595 21.5545 19.2571C21.4803 19.4843 21.4955 19.7312 21.5969 19.9477C21.6984 20.1641 21.8784 20.3337 22.1005 20.4221C22.2246 20.4749 22.3582 20.5016 22.493 20.5008C22.6278 20.4999 22.7611 20.4714 22.8845 20.4171C23.0079 20.3627 23.1188 20.2837 23.2105 20.1848C23.3022 20.0859 23.3726 19.9693 23.4175 19.8421C23.7914 18.6744 23.9876 17.4571 23.9995 16.2311C23.9995 15.9871 23.9775 15.7491 23.9635 15.5091" fill="black"/>
<path d="M23.9665 15.5091C23.9095 14.5929 23.7443 13.6866 23.4745 12.8091C23.432 12.6819 23.3639 12.5648 23.2744 12.4649C23.1849 12.365 23.0759 12.2844 22.9541 12.2282C22.8323 12.172 22.7004 12.1413 22.5663 12.138C22.4322 12.1348 22.2989 12.1589 22.1745 12.2091C21.9486 12.2928 21.7633 12.4596 21.6564 12.6754C21.5495 12.8912 21.5291 13.1398 21.5995 13.3701C21.8144 14.0657 21.951 14.7832 22.0065 15.5091H21.1505C21.0224 15.505 20.8948 15.5266 20.7752 15.5728C20.6557 15.6189 20.5467 15.6886 20.4546 15.7778C20.3625 15.8669 20.2893 15.9736 20.2393 16.0916C20.1893 16.2096 20.1636 16.3365 20.1636 16.4646C20.1636 16.5928 20.1893 16.7196 20.2393 16.8376C20.2893 16.9556 20.3625 17.0623 20.4546 17.1514C20.5467 17.2406 20.6557 17.3103 20.7752 17.3565C20.8948 17.4026 21.0224 17.4243 21.1505 17.4201H21.9615C21.8859 18.0442 21.7496 18.6595 21.5545 19.2571C21.4803 19.4843 21.4955 19.7312 21.5969 19.9477C21.6984 20.1641 21.8784 20.3337 22.1005 20.4221C22.2246 20.4749 22.3582 20.5016 22.493 20.5008C22.6278 20.4999 22.7611 20.4714 22.8845 20.4171C23.0079 20.3627 23.1188 20.2837 23.2105 20.1848C23.3022 20.0859 23.3726 19.9693 23.4175 19.8421C23.7914 18.6744 23.9876 17.4571 23.9995 16.2311C23.9995 15.9871 23.9775 15.7491 23.9635 15.5091M19.9705 9.78611L12.6855 16.9061C12.5002 17.0859 12.2522 17.1865 11.994 17.1865C11.7358 17.1865 11.4878 17.0859 11.3025 16.9061C11.212 16.8184 11.1401 16.7134 11.091 16.5974C11.0419 16.4813 11.0166 16.3566 11.0166 16.2306C11.0166 16.1046 11.0419 15.9799 11.091 15.8639C11.1401 15.7478 11.212 15.6428 11.3025 15.5551L18.5895 8.43511C18.7745 8.25568 19.0222 8.15534 19.28 8.15534C19.5377 8.15534 19.7854 8.25568 19.9705 8.43511C20.061 8.52276 20.1331 8.62773 20.1823 8.74377C20.2314 8.85982 20.2568 8.98457 20.2568 9.11061C20.2568 9.23665 20.2314 9.3614 20.1823 9.47745C20.1331 9.59349 20.061 9.69846 19.9705 9.78611V9.78611ZM11.0165 6.45911V7.51411C11.0246 7.76795 11.1311 8.00867 11.3136 8.18536C11.496 8.36205 11.74 8.46084 11.994 8.46084C12.2479 8.46084 12.4919 8.36205 12.6744 8.18536C12.8568 8.00867 12.9634 7.76795 12.9715 7.51411V6.45911C13.6891 6.52642 14.3976 6.66887 15.0855 6.88411C15.316 6.95904 15.5661 6.94606 15.7877 6.84766C16.0092 6.74926 16.1865 6.5724 16.2855 6.35111C16.3382 6.22868 16.3646 6.09655 16.363 5.96327C16.3614 5.82999 16.3319 5.69853 16.2762 5.5774C16.2206 5.45627 16.1402 5.34817 16.0401 5.26009C15.9401 5.17201 15.8227 5.10593 15.6955 5.06611C14.8101 4.78922 13.8963 4.61311 12.9715 4.54111C12.346 4.49025 11.7175 4.48658 11.0915 4.53011C11.0665 4.53011 11.0415 4.53711 11.0165 4.53811C7.80925 4.80485 4.8384 6.33162 2.75447 8.78411C1.24292 10.5502 0.30161 12.7326 0.0544736 15.0441C0.0374736 15.2011 0.0394736 15.3541 0.0294736 15.5101C-0.0731601 16.9093 0.0928228 18.3153 0.518474 19.6521C0.560993 19.7793 0.629093 19.8965 0.718582 19.9964C0.808072 20.0963 0.917058 20.1768 1.03883 20.233C1.16061 20.2892 1.2926 20.3199 1.42668 20.3232C1.56076 20.3265 1.69409 20.3023 1.81847 20.2521C2.04285 20.1655 2.22593 19.9969 2.33065 19.7804C2.43537 19.564 2.4539 19.3158 2.38247 19.0861C2.21335 18.5442 2.09287 17.9884 2.02247 17.4251H2.83647C2.96455 17.4293 3.09216 17.4076 3.2117 17.3615C3.33125 17.3153 3.4403 17.2456 3.53236 17.1564C3.62443 17.0673 3.69764 16.9606 3.74763 16.8426C3.79763 16.7246 3.82339 16.5978 3.82339 16.4696C3.82339 16.3415 3.79763 16.2146 3.74763 16.0966C3.69764 15.9786 3.62443 15.8719 3.53236 15.7828C3.4403 15.6936 3.33125 15.6239 3.2117 15.5778C3.09216 15.5316 2.96455 15.51 2.83647 15.5141H1.97447C2.00806 15.045 2.0749 14.5788 2.17447 14.1191C2.50235 12.6526 3.16993 11.2835 4.12347 10.1221L4.82847 10.8111C5.01343 10.9908 5.26112 11.0913 5.51897 11.0913C5.77682 11.0913 6.02452 10.9908 6.20947 10.8111C6.30017 10.7235 6.37231 10.6186 6.42157 10.5025C6.47084 10.3865 6.49623 10.2617 6.49623 10.1356C6.49623 10.0095 6.47084 9.88474 6.42157 9.76869C6.37231 9.65263 6.30017 9.54769 6.20947 9.46011L5.48647 8.75311C6.94423 7.53494 8.71677 6.75389 10.5995 6.50011C10.7405 6.48211 10.8805 6.47211 11.0205 6.45911H11.0165Z" stroke="black" stroke-width="0.2"/>
</g>
<defs>
<clipPath id="clip0">
<rect width="24" height="24" fill="white" transform="translate(0 0.5)"/>
</clipPath>
</defs>
</svg>
