<svg width="30" height="31" viewBox="0 0 30 31" fill="none" xmlns="http://www.w3.org/2000/svg">
<g clip-path="url(#clip0)">
<path fillRule="evenodd" clipRule="evenodd" d="M12.8 3.24561L12.9042 3.25433C13.8385 3.33251 14.7047 3.77456 15.3161 4.48524C15.9176 5.18432 16.2253 6.08829 16.176 7.00801V19.9881L16.1732 20.0301C16.1542 20.3108 16.2463 20.5877 16.4295 20.8012C16.5895 20.9875 16.8077 21.1125 17.047 21.1571C17.2863 21.1125 17.5045 20.9875 17.6645 20.8012C17.8477 20.5877 17.9398 20.3108 17.9208 20.0301L17.918 19.9881V13.1188C17.8641 12.2059 18.1634 11.3064 18.755 10.6073C19.3576 9.89532 20.2152 9.448 21.1439 9.36138L21.261 9.35045L21.3781 9.36157C22.3065 9.44969 23.1634 9.89832 23.7648 10.6111C24.355 11.3108 24.6529 12.2102 24.598 13.1226V16.0192L24.5957 16.0574C24.5782 16.342 24.6733 16.622 24.8605 16.837C25.0391 17.0421 25.2879 17.1724 25.5572 17.203H28C28.6904 17.203 29.25 17.7626 29.25 18.453C29.25 19.1433 28.6904 19.703 28 19.703H25.4519L25.4039 19.6993C24.4654 19.6269 23.593 19.1884 22.9749 18.4785C22.3662 17.7792 22.0523 16.8717 22.098 15.9468V13.0343L22.1015 12.9878C22.1222 12.7104 22.0333 12.4358 21.8539 12.2232C21.7001 12.0409 21.4903 11.9165 21.259 11.8681C21.0276 11.9161 20.8175 12.0402 20.6634 12.2223C20.4836 12.4347 20.3943 12.7091 20.4147 12.9866L20.418 13.0322V19.9084C20.468 20.8271 20.1615 21.7304 19.5615 22.4295C18.9513 23.1404 18.0863 23.5831 17.1529 23.6625L17.047 23.6715L16.9411 23.6625C16.0077 23.5831 15.1427 23.1404 14.5325 22.4295C13.9325 21.7304 13.626 20.8271 13.676 19.9084V6.9295L13.6787 6.88813C13.6974 6.60683 13.6049 6.32946 13.421 6.11576C13.2601 5.92876 13.0406 5.80361 12.8 5.7595C12.5594 5.80361 12.3399 5.92876 12.179 6.11576C11.9951 6.32946 11.9026 6.60683 11.9213 6.88813L11.924 6.9295V23.9908C11.9747 24.9085 11.6694 25.8112 11.0708 26.5103C10.4619 27.2213 9.59815 27.6649 8.66548 27.7453L8.558 27.7546L8.45052 27.7453C7.51787 27.6649 6.65409 27.2215 6.04504 26.5106C5.44619 25.8116 5.14067 24.9089 5.191 23.9911V15.4817L5.19334 15.4435C5.21078 15.159 5.11565 14.879 4.92848 14.664C4.74987 14.4588 4.50111 14.3285 4.23175 14.298H2C1.30964 14.298 0.75 13.7383 0.75 13.048C0.75 12.3576 1.30964 11.798 2 11.798H4.33713L4.38512 11.8017C5.32361 11.8741 6.19602 12.3125 6.81407 13.0225C7.42285 13.7218 7.73675 14.6292 7.691 15.5542V24.0714L7.68812 24.1138C7.66905 24.3941 7.76078 24.6707 7.94356 24.884C8.10269 25.0698 8.31977 25.1947 8.55798 25.2398C8.79602 25.1947 9.01293 25.0698 9.17191 24.8842C9.35453 24.6709 9.44611 24.3945 9.42692 24.1144L9.424 24.0717V7.00801C9.37474 6.08829 9.68241 5.18432 10.2839 4.48524C10.8953 3.77456 11.7615 3.33251 12.6958 3.25433L12.8 3.24561Z" fill="black"/>
</g>
<defs>
<clipPath id="clip0">
<rect width="30" height="30" fill="white" transform="translate(0 0.5)"/>
</clipPath>
</defs>
</svg>
