<svg width="13" height="13" viewBox="0 0 13 13" fill="none" xmlns="http://www.w3.org/2000/svg">
<path d="M6.11336 5.37932L7.42061 6.63932L5.5125 7.31027L6.11336 5.37932ZM6.3 5.18638L10.799 0.527533C10.9441 0.377366 11.143 0.291012 11.3518 0.287467C11.5607 0.283923 11.7623 0.363478 11.9125 0.508633L12.0858 0.675583C12.1602 0.747405 12.2197 0.83318 12.261 0.92801C12.3022 1.02284 12.3244 1.12487 12.3262 1.22827C12.3281 1.33167 12.3095 1.43442 12.2716 1.53065C12.2337 1.62688 12.1773 1.7147 12.1055 1.78911L7.60883 6.45032L6.3 5.18638Z" fill="#A3C5D6"/>
<path d="M1.69864 12.8874C1.24852 12.8865 0.81707 12.7074 0.498717 12.3892C0.180363 12.071 0.00104068 11.6396 0 11.1895V1.9852C0.000833232 1.53503 0.180089 1.10354 0.498487 0.785284C0.816886 0.467034 1.24846 0.287978 1.69864 0.287354H5.03527C5.24163 0.287354 5.43953 0.369326 5.58544 0.515239C5.73135 0.661152 5.81332 0.859052 5.81332 1.0654C5.81332 1.27176 5.73135 1.46966 5.58544 1.61557C5.43953 1.76148 5.24163 1.84345 5.03527 1.84345H1.69864C1.66097 1.84345 1.62483 1.85836 1.59813 1.88492C1.57142 1.91148 1.55631 1.94754 1.5561 1.9852V11.1895C1.55631 11.2272 1.57142 11.2632 1.59813 11.2898C1.62483 11.3163 1.66097 11.3313 1.69864 11.3313H10.9014C10.9389 11.331 10.9748 11.316 11.0014 11.2895C11.0279 11.263 11.0429 11.227 11.0431 11.1895V8.45137C11.0495 8.2492 11.1344 8.05746 11.2797 7.91672C11.4249 7.77598 11.6193 7.69729 11.8216 7.69729C12.0238 7.69729 12.2182 7.77598 12.3635 7.91672C12.5087 8.05746 12.5936 8.2492 12.6 8.45137V11.1895C12.5992 11.6397 12.4199 12.0712 12.1015 12.3894C11.7831 12.7077 11.3515 12.8867 10.9014 12.8874H1.69864Z" fill="#A3C5D6"/>
<path fill-rule="evenodd" clip-rule="evenodd" d="M5.03527 0.681104H1.69893C1.35305 0.68165 1.02148 0.81925 0.776846 1.06377C0.532232 1.30827 0.394481 1.63974 0.39375 1.98559V11.189C0.394662 11.5348 0.532481 11.8662 0.777075 12.1107C1.02168 12.3552 1.35315 12.4929 1.69899 12.4936L10.9008 12.4936C11.2466 12.493 11.5786 12.3554 11.8232 12.1109C12.0678 11.8664 12.2055 11.535 12.2063 11.1892V8.45872C12.2018 8.36066 12.1601 8.26792 12.0895 8.19954C12.0177 8.12995 11.9216 8.09104 11.8216 8.09104C11.7215 8.09104 11.6255 8.12995 11.5536 8.19954C11.483 8.26792 11.4413 8.36066 11.4369 8.45872V11.1917C11.4361 11.3329 11.3796 11.4681 11.2798 11.5679C11.1799 11.6678 11.0447 11.7242 10.9035 11.725L10.9014 11.725H1.69864C1.55692 11.725 1.42096 11.6689 1.32047 11.569C1.21999 11.469 1.16314 11.3334 1.16236 11.1917L1.16235 11.1895V1.98303C1.16313 1.84131 1.21999 1.70566 1.32047 1.60573C1.42096 1.5058 1.55692 1.4497 1.69864 1.4497H5.03527C5.1372 1.4497 5.23495 1.40921 5.30702 1.33714C5.37909 1.26507 5.41958 1.16733 5.41958 1.0654C5.41958 0.963481 5.37909 0.865733 5.30702 0.793662C5.23495 0.721592 5.1372 0.681104 5.03527 0.681104Z" fill="#A3C5D6"/>
</svg>
