<svg width="24" height="25" viewBox="0 0 24 25" fill="none" xmlns="http://www.w3.org/2000/svg">
<g clip-path="url(#clip0)">
<path d="M14.369 24.5C14.1498 24.4999 13.9384 24.4191 13.775 24.273L8.489 19.543H2.893C2.7756 19.5429 2.65937 19.5196 2.55096 19.4746C2.44254 19.4295 2.34406 19.3636 2.26114 19.2804C2.17822 19.1973 2.11248 19.0987 2.06767 18.9902C2.02286 18.8817 1.99987 18.7654 2 18.648V1.395C1.99987 1.2776 2.02286 1.16132 2.06767 1.0528C2.11248 0.944289 2.17822 0.845662 2.26114 0.762553C2.34406 0.679445 2.44254 0.613483 2.55096 0.568434C2.65937 0.523385 2.7756 0.500131 2.893 0.5L20.107 0.5C20.2244 0.500131 20.3406 0.523385 20.449 0.568434C20.5575 0.613483 20.6559 0.679445 20.7389 0.762553C20.8218 0.845662 20.8875 0.944289 20.9323 1.0528C20.9771 1.16132 21.0001 1.2776 21 1.395V18.648C21.0001 18.7654 20.9771 18.8817 20.9323 18.9902C20.8875 19.0987 20.8218 19.1973 20.7389 19.2804C20.6559 19.3636 20.5575 19.4295 20.449 19.4746C20.3406 19.5196 20.2244 19.5429 20.107 19.543H15.1L15.26 23.571C15.2651 23.6913 15.2459 23.8114 15.2033 23.924C15.1608 24.0367 15.0959 24.1396 15.0126 24.2264C14.9292 24.3133 14.8291 24.3825 14.7184 24.4297C14.6076 24.4768 14.4884 24.5011 14.368 24.501L14.369 24.5ZM3.785 17.754H8.829C9.0482 17.7539 9.25971 17.8348 9.423 17.981L13.392 21.533L13.278 18.683C13.2732 18.5628 13.2926 18.4428 13.3353 18.3303C13.3779 18.2178 13.4428 18.115 13.5261 18.0282C13.6094 17.9413 13.7093 17.8722 13.82 17.8249C13.9306 17.7776 14.0497 17.7532 14.17 17.753H19.213V2.289H3.785V17.754ZM11.585 15.53C11.3257 15.5304 11.0765 15.4292 10.891 15.248L7.07 11.47C6.75447 11.1583 6.50395 10.7871 6.33297 10.3779C6.16198 9.96862 6.07394 9.52952 6.07394 9.086C6.07394 8.64248 6.16198 8.20338 6.33297 7.79414C6.50395 7.38491 6.75447 7.01369 7.07 6.702C8.3 5.484 10.761 5.422 11.583 6.949C11.8501 6.61615 12.1843 6.34329 12.5639 6.14818C12.9434 5.95308 13.3598 5.8401 13.7859 5.81661C14.2121 5.79312 14.6384 5.85964 15.0371 6.01185C15.4358 6.16405 15.7979 6.39853 16.1 6.7C16.4159 7.01148 16.6667 7.38263 16.838 7.7919C17.0092 8.20116 17.0973 8.64037 17.0973 9.084C17.0973 9.52763 17.0092 9.96684 16.838 10.3761C16.6667 10.7854 16.4159 11.1565 16.1 11.468L12.286 15.24C12.0993 15.4236 11.8479 15.5267 11.586 15.527" fill="black"/>
</g>
<defs>
<clipPath id="clip0">
<rect width="24" height="24" fill="white" transform="translate(0 0.5)"/>
</clipPath>
</defs>
</svg>
