<svg width="18" height="18" viewBox="0 0 18 18" fill="none" xmlns="http://www.w3.org/2000/svg">
<path opacity="0.48" d="M3 7H0V10H3V7Z" fill="#14529F"/>
<path opacity="0.48" d="M3 11H0V14H3V11Z" fill="#14529F"/>
<path opacity="0.48" d="M0 15H3V18H1C0.734784 18 0.48043 17.8946 0.292893 17.7071C0.105357 17.5196 0 17.2652 0 17V15Z" fill="#14529F"/>
<path opacity="0.48" d="M18 7H15V10H18V7Z" fill="#14529F"/>
<path opacity="0.48" d="M18 11H15V14H18V11Z" fill="#14529F"/>
<path opacity="0.48" d="M15 15H18V17C18 17.2652 17.8946 17.5196 17.7071 17.7071C17.5196 17.8946 17.2652 18 17 18H15V15Z" fill="#14529F"/>
<path opacity="0.48" d="M13 7H10V10H13V7Z" fill="#14529F"/>
<path d="M13 11H10V14H13V11Z" fill="#14529F"/>
<path opacity="0.48" d="M13 15H10V18H13V15Z" fill="#14529F"/>
<path opacity="0.48" d="M8 7H5V10H8V7Z" fill="#14529F"/>
<path opacity="0.48" d="M8 11H5V14H8V11Z" fill="#14529F"/>
<path opacity="0.48" d="M8 15H5V18H8V15Z" fill="#14529F"/>
<path d="M1 0H17C17.2652 0 17.5196 0.105357 17.7071 0.292893C17.8946 0.48043 18 0.734784 18 1V5H0V1C0 0.734784 0.105357 0.48043 0.292893 0.292893C0.48043 0.105357 0.734784 0 1 0V0Z" fill="#14529F"/>
</svg>
