<svg width="30" height="31" viewBox="0 0 30 31" fill="none" xmlns="http://www.w3.org/2000/svg">
<g clip-path="url(#clip0)">
<path opacity="0.48" d="M9 13.5H6V16.5H9V13.5Z" fill="black"/>
<path opacity="0.48" d="M9 17.5H6V20.5H9V17.5Z" fill="black"/>
<path opacity="0.48" d="M6 21.5H9V24.5H7C6.73478 24.5 6.48043 24.3946 6.29289 24.2071C6.10536 24.0196 6 23.7652 6 23.5V21.5Z" fill="black"/>
<path opacity="0.48" d="M24 13.5H21V16.5H24V13.5Z" fill="black"/>
<path opacity="0.48" d="M24 17.5H21V20.5H24V17.5Z" fill="black"/>
<path opacity="0.48" d="M21 21.5H24V23.5C24 23.7652 23.8946 24.0196 23.7071 24.2071C23.5196 24.3946 23.2652 24.5 23 24.5H21V21.5Z" fill="black"/>
<path opacity="0.48" d="M19 13.5H16V16.5H19V13.5Z" fill="black"/>
<path d="M19 17.5H16V20.5H19V17.5Z" fill="black"/>
<path opacity="0.48" d="M19 21.5H16V24.5H19V21.5Z" fill="black"/>
<path opacity="0.48" d="M14 13.5H11V16.5H14V13.5Z" fill="black"/>
<path opacity="0.48" d="M14 17.5H11V20.5H14V17.5Z" fill="black"/>
<path opacity="0.48" d="M14 21.5H11V24.5H14V21.5Z" fill="black"/>
<path d="M7 6.5H23C23.2652 6.5 23.5196 6.60536 23.7071 6.79289C23.8946 6.98043 24 7.23478 24 7.5V11.5H6V7.5C6 7.23478 6.10536 6.98043 6.29289 6.79289C6.48043 6.60536 6.73478 6.5 7 6.5V6.5Z" fill="black"/>
</g>
<defs>
<clipPath id="clip0">
<rect width="30" height="30" fill="white" transform="translate(0 0.5)"/>
</clipPath>
</defs>
</svg>
