<svg width="30" height="31" viewBox="0 0 30 31" fill="none" xmlns="http://www.w3.org/2000/svg">
<g clip-path="url(#clip0)">
<path fillRule="evenodd" clipRule="evenodd" d="M6.98271 13.2301C7.81108 13.2206 8.49035 13.8843 8.4999 14.7127L8.58301 21.919L15.7893 22.0021C16.6177 22.0116 17.2815 22.6909 17.2719 23.5193C17.2624 24.3476 16.5831 25.0114 15.7547 25.0019L7.08272 24.9019C6.26782 24.8925 5.60951 24.2342 5.60011 23.4193L5.5001 14.7473C5.49055 13.9189 6.15433 13.2397 6.98271 13.2301Z" fill="black"/>
<path fillRule="evenodd" clipRule="evenodd" d="M12.7261 7.48271C12.7356 6.65434 13.4149 5.99055 14.2432 6.0001L22.9152 6.10008C23.7301 6.10947 24.3885 6.76778 24.3979 7.58268L24.4979 16.2547C24.5074 17.083 23.8436 17.7623 23.0153 17.7719C22.1869 17.7814 21.5076 17.1176 21.4981 16.2893L21.415 9.08298L14.2087 8.9999C13.3803 8.99035 12.7165 8.31108 12.7261 7.48271Z" fill="black"/>
</g>
<defs>
<clipPath id="clip0">
<rect width="30" height="30" fill="white" transform="translate(0 0.5)"/>
</clipPath>
</defs>
</svg>
