<svg width="24" height="25" viewBox="0 0 24 25" fill="none" xmlns="http://www.w3.org/2000/svg">
<g clip-path="url(#clip0)">
<path d="M20.044 24.5H2.95702C2.79211 24.4997 2.63008 24.4568 2.4866 24.3755C2.34312 24.2942 2.22305 24.1773 2.13802 24.036C2.05289 23.8939 2.00553 23.7324 2.00046 23.5668C1.99538 23.4012 2.03275 23.2371 2.10902 23.09L7.54102 12.607V1.464C7.54049 1.33759 7.56493 1.21233 7.61294 1.0954C7.66095 0.978461 7.73158 0.872159 7.82078 0.78259C7.90997 0.693022 8.01598 0.621951 8.13272 0.573456C8.24945 0.524962 8.37461 0.499999 8.50102 0.5L14.501 0.5C14.6271 0.500524 14.7518 0.525875 14.8681 0.574604C14.9844 0.623334 15.0899 0.694488 15.1787 0.784003C15.2674 0.873519 15.3377 0.979644 15.3855 1.09632C15.4332 1.21299 15.4575 1.33793 15.457 1.464V12.607L20.892 23.09C20.9683 23.2371 21.0057 23.4012 21.0006 23.5668C20.9955 23.7324 20.9481 23.8939 20.863 24.036C20.778 24.1773 20.6579 24.2942 20.5144 24.3755C20.371 24.4568 20.2089 24.4997 20.044 24.5ZM4.53502 22.573H18.466L13.656 13.289C13.585 13.151 13.548 12.9981 13.548 12.843V2.427H9.45402V12.843C9.45401 12.9981 9.41699 13.151 9.34602 13.289L4.53502 22.573ZM16.201 20.341L14.655 17.069C14.5765 16.8999 14.4515 16.7566 14.2946 16.6559C14.1378 16.5551 13.9555 16.5011 13.769 16.5H9.21802C9.03167 16.5003 8.84925 16.5536 8.69203 16.6536C8.53481 16.7537 8.40926 16.8963 8.33002 17.065L6.78502 20.341C6.71306 20.4915 6.6803 20.6578 6.68979 20.8243C6.69929 20.9909 6.75071 21.1524 6.83931 21.2937C6.9279 21.4351 7.05078 21.5518 7.19653 21.6329C7.34229 21.7141 7.50619 21.7571 7.67302 21.758H15.316C15.4828 21.7571 15.6468 21.7141 15.7925 21.6329C15.9383 21.5518 16.0611 21.4351 16.1497 21.2937C16.2383 21.1524 16.2897 20.9909 16.2992 20.8243C16.3087 20.6578 16.276 20.4915 16.204 20.341" fill="black"/>
</g>
<defs>
<clipPath id="clip0">
<rect width="24" height="24" fill="white" transform="translate(0 0.5)"/>
</clipPath>
</defs>
</svg>
