<svg width="30" height="31" viewBox="0 0 30 31" fill="none" xmlns="http://www.w3.org/2000/svg">
<g clip-path="url(#clip0)">
<path d="M9.04286 24.5C6.47283 24.5 5 23 5 20.3781V18.3351C5.00336 18.1508 5.04156 17.969 5.1124 17.8002C5.18325 17.6314 5.28535 17.4788 5.41285 17.3512C5.54034 17.2236 5.69072 17.1236 5.85535 17.0568C6.01999 16.9901 6.19563 16.9579 6.37221 16.9621C6.54879 16.9579 6.72444 16.9901 6.88908 17.0568C7.05371 17.1236 7.20409 17.2236 7.33158 17.3512C7.45908 17.4788 7.56117 17.6314 7.63202 17.8002C7.70287 17.969 7.74107 18.1508 7.74443 18.3351V20.3751C7.72723 20.5365 7.74113 20.7 7.78532 20.8557C7.82951 21.0115 7.90309 21.1565 8.00174 21.2822C8.10039 21.4079 8.22211 21.5117 8.35976 21.5876C8.49741 21.6634 8.64821 21.7099 8.80329 21.7241C8.84258 21.7241 8.9432 21.7241 8.9432 21.7241H21.0698C21.3634 21.7284 21.6479 21.6179 21.8673 21.4143C22.0867 21.2108 22.2251 20.9288 22.2552 20.6241C22.2612 20.5552 22.2612 20.4859 22.2552 20.4171V18.3331C22.2586 18.1488 22.2968 17.967 22.3676 17.7982C22.4385 17.6294 22.5406 17.4768 22.6681 17.3492C22.7955 17.2216 22.9459 17.1216 23.1106 17.0548C23.2752 16.9881 23.4508 16.9559 23.6274 16.9601C23.804 16.9559 23.9796 16.9881 24.1443 17.0548C24.3089 17.1216 24.4593 17.2216 24.5868 17.3492C24.7143 17.4768 24.8164 17.6294 24.8872 17.7982C24.9581 17.967 24.9963 18.1488 24.9996 18.3331V20.3761C24.9996 22.997 23.5268 24.498 20.9577 24.498L9.04286 24.5ZM14.9735 19.7711C14.6131 19.7736 14.2658 19.6302 14.0047 19.3711L8.58386 13.9482C8.45724 13.8233 8.35638 13.6728 8.28744 13.5058C8.21851 13.3389 8.18296 13.159 8.18296 12.9772C8.18296 12.7954 8.21851 12.6155 8.28744 12.4486C8.35638 12.2816 8.45724 12.1311 8.58386 12.0062C8.84525 11.7469 9.19291 11.6035 9.5536 11.6062C9.91461 11.6033 10.2626 11.7467 10.5243 12.0062L13.6233 15.1062V5.87335C13.6266 5.68906 13.6648 5.50728 13.7357 5.33843C13.8065 5.16959 13.9086 5.01701 14.0361 4.88944C14.1636 4.76188 14.314 4.66184 14.4786 4.59508C14.6433 4.52831 14.8189 4.49613 14.9955 4.50037C15.1721 4.49613 15.3477 4.52831 15.5124 4.59508C15.677 4.66184 15.8274 4.76188 15.9549 4.88944C16.0824 5.01701 16.1845 5.16959 16.2553 5.33843C16.3262 5.50728 16.3644 5.68906 16.3677 5.87335V15.1092L19.4667 12.0092C19.7285 11.7499 20.0764 11.6065 20.4374 11.6092C20.7984 11.6064 21.1464 11.7498 21.4081 12.0092C21.5347 12.1342 21.6356 12.2847 21.7046 12.4516C21.7736 12.6185 21.8094 12.7984 21.8096 12.9802C21.8094 13.1622 21.7737 13.3422 21.7046 13.5093C21.6356 13.6764 21.5347 13.8271 21.4081 13.9522L15.9873 19.3741C15.7271 19.6336 15.3803 19.777 15.0204 19.7741L14.9735 19.7711Z" fill="black"/>
</g>
<defs>
<clipPath id="clip0">
<rect width="30" height="30" fill="white" transform="translate(0 0.5)"/>
</clipPath>
</defs>
</svg>
