<svg width="30" height="31" viewBox="0 0 30 31" fill="none" xmlns="http://www.w3.org/2000/svg">
<g clip-path="url(#clip0)">
<path d="M24 18.5C25.6569 18.5 27 17.1569 27 15.5C27 13.8431 25.6569 12.5 24 12.5C22.3431 12.5 21 13.8431 21 15.5C21 17.1569 22.3431 18.5 24 18.5Z" fill="black"/>
<path d="M15 18.5C16.6569 18.5 18 17.1569 18 15.5C18 13.8431 16.6569 12.5 15 12.5C13.3431 12.5 12 13.8431 12 15.5C12 17.1569 13.3431 18.5 15 18.5Z" fill="black"/>
<path d="M6 18.5C7.65685 18.5 9 17.1569 9 15.5C9 13.8431 7.65685 12.5 6 12.5C4.34315 12.5 3 13.8431 3 15.5C3 17.1569 4.34315 18.5 6 18.5Z" fill="black"/>
</g>
<defs>
<clipPath id="clip0">
<rect width="30" height="30" fill="white" transform="translate(0 0.5)"/>
</clipPath>
</defs>
</svg>
