<svg width="30" height="31" viewBox="0 0 30 31" fill="none" xmlns="http://www.w3.org/2000/svg">

<path d="M11.998 22.5001H17.9966C17.9966 23.2957 17.6806 24.0588 17.1182 24.6214C16.5557 25.1839 15.7928 25.5 14.9973 25.5C14.6035 25.5 14.2134 25.4224 13.8496 25.2716C13.4857 25.1209 13.155 24.8999 12.8765 24.6214C12.598 24.3428 12.3771 24.0121 12.2263 23.6481C12.0756 23.2842 11.998 22.8941 11.998 22.5001ZM5.90472 22.5001C5.73604 22.5029 5.5699 22.4589 5.42478 22.3728C5.27967 22.2868 5.16128 22.1621 5.0828 22.0128C5.01064 21.8678 4.98475 21.7041 5.00866 21.5439C5.03256 21.3836 5.1051 21.2346 5.21645 21.117C6.67186 19.4209 7.42076 17.2307 7.3086 14.9983V12.9447C7.37099 10.9476 8.20871 9.05337 9.6441 7.6637C11.0795 6.27402 12.9996 5.49822 14.9973 5.50084C17.0032 5.47099 18.9391 6.23798 20.3804 7.63361C21.8218 9.02924 22.6509 10.9396 22.6861 12.9458V14.9983C22.5753 17.2316 23.3266 19.422 24.7845 21.117C24.8955 21.2351 24.9678 21.3843 24.9915 21.5446C25.0152 21.705 24.9892 21.8687 24.9171 22.0138C24.8387 22.163 24.7205 22.2876 24.5756 22.3736C24.4307 22.4596 24.2648 22.5038 24.0963 22.5012L5.90472 22.5001ZM9.1166 12.9447V14.9973C9.17433 17.0389 8.66154 19.0562 7.63589 20.8223H22.3641C21.3382 19.0562 20.8251 17.039 20.8823 14.9973V12.9447C20.8651 11.3999 20.2357 9.92498 19.1324 8.84375C18.0291 7.76252 16.5419 7.1633 14.9973 7.17761C13.4653 7.20327 12.0015 7.81564 10.9075 8.88857C9.8134 9.96149 9.17243 11.4132 9.1166 12.9447Z" fill="black"/>
<path fillRule="evenodd" clipRule="evenodd" d="M20.0326 7.99281C18.6864 6.68927 16.8783 5.97291 15.0048 6.00078L14.9967 6.0009C13.129 5.99846 11.3339 6.72368 9.99189 8.02292C8.65175 9.32038 7.86884 11.0883 7.8086 12.9527V14.986C7.92371 17.3418 7.13198 19.6525 5.59591 21.4426L5.58795 21.4519L5.57955 21.4608C5.53863 21.504 5.51197 21.5588 5.50318 21.6176C5.49465 21.6748 5.50337 21.7332 5.52815 21.7853C5.56357 21.8505 5.61596 21.9049 5.6798 21.9427C5.74529 21.9816 5.82027 22.0015 5.89639 22.0002L5.90475 22.0001L24.104 22.0012C24.1801 22.0024 24.255 21.9825 24.3204 21.9437C24.384 21.9058 24.4363 21.8516 24.4717 21.7865C24.4966 21.734 24.5053 21.6753 24.4968 21.6178C24.4881 21.5584 24.4613 21.5032 24.4203 21.4595L24.4127 21.4515L24.4055 21.4431C22.8666 19.654 22.0724 17.343 22.1861 14.9861V12.9503C22.1521 11.078 21.3778 9.29537 20.0326 7.99281ZM12.5486 23.0005L17.446 23.0008C17.3486 23.4772 17.1135 23.9188 16.7646 24.2678C16.2959 24.7366 15.6602 25 14.9973 25C14.6691 25 14.3442 24.9353 14.0409 24.8097C13.7377 24.6841 13.4622 24.5 13.2301 24.2678C12.998 24.0357 12.8139 23.7601 12.6883 23.4568C12.6271 23.3092 12.5804 23.1563 12.5486 23.0005ZM11.534 23.0005C11.5755 23.288 11.6527 23.5698 11.7644 23.8394C11.9402 24.2641 12.198 24.6499 12.5229 24.9749C12.8479 25.2999 13.2336 25.5577 13.6582 25.7336C14.0827 25.9095 14.5378 26 14.9973 26C15.9254 26 16.8155 25.6312 17.4718 24.9749C18.0088 24.4377 18.3533 23.7439 18.4607 23.0009L24.0929 23.0012C24.3523 23.0044 24.6077 22.936 24.8309 22.8035C25.0553 22.6703 25.2384 22.4774 25.3598 22.2464L25.365 22.2362C25.4825 21.9997 25.5247 21.7328 25.4861 21.4715C25.4481 21.2143 25.3335 20.9747 25.1574 20.7837C23.7871 19.1869 23.0812 17.1251 23.1855 15.0231L23.1861 15.0107V12.9458L23.186 12.937C23.1485 10.7985 22.2647 8.76212 20.7282 7.27441C19.1928 5.78763 17.1308 4.97011 14.9939 5.00084C12.8677 4.9991 10.8241 5.82529 9.29631 7.30447C7.76752 8.78458 6.8753 10.8021 6.80884 12.9291L6.8086 12.9369V15.0109L6.80923 15.0234C6.91479 17.1243 6.21134 19.1856 4.84387 20.7834C4.66744 20.9738 4.55247 21.2131 4.51413 21.4701C4.47511 21.7316 4.51736 21.9988 4.63517 22.2355L4.64019 22.2454C4.76171 22.4766 4.94504 22.6696 5.16977 22.8029C5.39319 22.9354 5.6488 23.0036 5.90846 23.0001L11.534 23.0005ZM14.9927 6.67763C16.6698 6.66209 18.2845 7.3127 19.4824 8.48664C20.6803 9.66058 21.3636 11.2619 21.3823 12.9392L21.3823 12.9447L21.3823 15.0113C21.3277 16.9601 21.8173 18.8855 22.7964 20.5712L23.2327 21.3223H6.76733L7.20351 20.5712C8.18246 18.8855 8.6719 16.9601 8.6168 15.0114L8.6164 14.9973L8.6166 12.9356L8.61693 12.9265C8.67742 11.2671 9.37191 9.69413 10.5574 8.53158C11.7428 7.36903 13.3289 6.70549 14.989 6.67768L14.9927 6.67763ZM15.0038 7.67757C13.6005 7.70156 12.2598 8.26269 11.2575 9.24555C10.257 10.2268 9.66992 11.5537 9.6166 12.954V14.9903C9.6677 16.8382 9.2718 18.6668 8.468 20.3223H21.5319C20.7279 18.6669 20.3317 16.8383 20.3823 14.9904V12.9475C20.3658 11.5361 19.7905 10.1888 18.7825 9.20086C17.7742 8.21277 16.4153 7.66499 15.0038 7.67757Z" fill="black"/>
<defs>

</defs>
</svg>
