<svg width="30" height="31" viewBox="0 0 30 31" fill="none" xmlns="http://www.w3.org/2000/svg">
<g clip-path="url(#clip0)">
<path fillRule="evenodd" clipRule="evenodd" d="M8 17.5C8 16.3954 8.89543 15.5 10 15.5H20C21.1046 15.5 22 16.3954 22 17.5V23.5C22 24.6046 21.1046 25.5 20 25.5H10C8.89543 25.5 8 24.6046 8 23.5V17.5ZM20 17.5H10V23.5H20V17.5Z" fill="black"/>
<path d="M24 19.5H6C5.73478 19.5 5.48043 19.3946 5.29289 19.2071C5.10536 19.0196 5 18.7652 5 18.5V14.5C5 13.7044 5.31607 12.9413 5.87868 12.3787C6.44129 11.8161 7.20435 11.5 8 11.5H22C22.7956 11.5 23.5587 11.8161 24.1213 12.3787C24.6839 12.9413 25 13.7044 25 14.5V18.5C25 18.7652 24.8946 19.0196 24.7071 19.2071C24.5196 19.3946 24.2652 19.5 24 19.5ZM22 13.5C21.7348 13.5 21.4804 13.6054 21.2929 13.7929C21.1054 13.9804 21 14.2348 21 14.5C21 14.7652 21.1054 15.0196 21.2929 15.2071C21.4804 15.3946 21.7348 15.5 22 15.5C22.2652 15.5 22.5196 15.3946 22.7071 15.2071C22.8946 15.0196 23 14.7652 23 14.5C23 14.2348 22.8946 13.9804 22.7071 13.7929C22.5196 13.6054 22.2652 13.5 22 13.5Z" fill="black"/>
<path d="M9 5.5H21C21.2652 5.5 21.5196 5.60536 21.7071 5.79289C21.8946 5.98043 22 6.23478 22 6.5V10.5H8V6.5C8 6.23478 8.10536 5.98043 8.29289 5.79289C8.48043 5.60536 8.73478 5.5 9 5.5Z" fill="black"/>
</g>
<defs>
<clipPath id="clip0">
<rect width="30" height="30" fill="white" transform="translate(0 0.5)"/>
</clipPath>
</defs>
</svg>
