<svg width="30" height="31" viewBox="0 0 30 31" fill="none" xmlns="http://www.w3.org/2000/svg">
<g clip-path="url(#clip0)">
<path d="M19 21.4994C18.9997 20.8788 19.1919 20.2733 19.5501 19.7664C19.9083 19.2596 20.4148 18.8763 21 18.6694V17.3694C21.0251 17.1259 20.9965 16.8798 20.9162 16.6485C20.8358 16.4172 20.7057 16.2064 20.535 16.0308C20.3644 15.8553 20.1572 15.7193 19.9283 15.6325C19.6994 15.5457 19.4542 15.5102 19.21 15.5284H16V18.6714C16.6672 18.9073 17.2296 19.3715 17.5876 19.9819C17.9457 20.5923 18.0765 21.3097 17.9568 22.0072C17.8371 22.7047 17.4747 23.3374 16.9337 23.7935C16.3926 24.2497 15.7077 24.4999 15 24.4999C14.2923 24.4999 13.6074 24.2497 13.0663 23.7935C12.5253 23.3374 12.1629 22.7047 12.0432 22.0072C11.9235 21.3097 12.0543 20.5923 12.4124 19.9819C12.7705 19.3715 13.3328 18.9073 14 18.6714V15.5264H10.787C10.543 15.5086 10.298 15.5445 10.0694 15.6316C9.84075 15.7186 9.63396 15.8548 9.4636 16.0304C9.29324 16.206 9.16344 16.4168 9.08334 16.648C9.00325 16.8791 8.9748 17.1251 9.00001 17.3684V18.6684C9.66722 18.9043 10.2296 19.3685 10.5876 19.9789C10.9457 20.5893 11.0765 21.3067 10.9568 22.0042C10.8371 22.7017 10.4747 23.3344 9.93367 23.7905C9.3926 24.2467 8.70769 24.4969 8.00001 24.4969C7.29232 24.4969 6.60741 24.2467 6.06634 23.7905C5.52528 23.3344 5.16288 22.7017 5.04321 22.0042C4.92354 21.3067 5.0543 20.5893 5.41237 19.9789C5.77045 19.3685 6.33279 18.9043 7.00001 18.6684V17.3684C7.00001 14.9144 8.28601 13.4994 10.787 13.4994H14V10.3284C13.3328 10.0925 12.7705 9.62836 12.4124 9.01795C12.0543 8.40754 11.9235 7.69019 12.0432 6.99269C12.1629 6.2952 12.5253 5.66246 13.0663 5.20632C13.6074 4.75018 14.2923 4.5 15 4.5C15.7077 4.5 16.3926 4.75018 16.9337 5.20632C17.4747 5.66246 17.8371 6.2952 17.9568 6.99269C18.0765 7.69019 17.9457 8.40754 17.5876 9.01795C17.2296 9.62836 16.6672 10.0925 16 10.3284V13.4994H19.213C21.714 13.4994 23 14.9144 23 17.3654V18.6654C23.5183 18.8487 23.9763 19.1708 24.324 19.5967C24.6716 20.0226 24.8956 20.5358 24.9714 21.0803C25.0471 21.6248 24.9718 22.1797 24.7537 22.6843C24.5355 23.1889 24.1829 23.6239 23.7343 23.9417C23.2857 24.2596 22.7585 24.448 22.21 24.4865C21.6616 24.525 21.1132 24.412 20.6246 24.16C20.136 23.9079 19.7261 23.5265 19.4396 23.0573C19.1531 22.5881 19.001 22.0492 19 21.4994Z" fill="black"/>
</g>
<defs>
<clipPath id="clip0">
<rect width="30" height="30" fill="white" transform="translate(0 0.5)"/>
</clipPath>
</defs>
</svg>
