<svg width="30" height="31" viewBox="0 0 30 31" fill="none" xmlns="http://www.w3.org/2000/svg">
<g clip-path="url(#clip0)">
<path d="M14.9997 10.9107C10.8892 10.9107 7.19035 15.25 7.19035 15.25C7.19035 15.25 10.8892 19.5893 14.9997 19.5893C19.1102 19.5893 22.8094 15.25 22.8094 15.25C22.8094 15.25 19.1102 10.9107 14.9997 10.9107ZM14.9997 8.5C17.2518 8.5 19.5825 9.39635 21.9268 11.1642C23.5323 12.3748 24.5638 13.5654 24.6762 13.6972L25.4469 14.6012C25.7656 14.975 25.7656 15.525 25.4469 15.8988L24.6762 16.8028C24.5638 16.9346 23.5323 18.1252 21.9268 19.3358C19.5825 21.1036 17.2518 22 14.9997 22C12.7475 22 10.4169 21.1036 8.07266 19.3358C6.46732 18.1252 5.43584 16.9345 5.32351 16.8027L4.55293 15.8987C4.23431 15.5249 4.23431 14.9751 4.55293 14.6013L5.32351 13.6973C5.43584 13.5655 6.46732 12.3748 8.07266 11.1642C10.4169 9.39637 12.7475 8.5 14.9997 8.5Z" fill="black"/>
<path d="M11.0951 13.3215C11.0951 12.5586 11.3241 11.8129 11.7532 11.1786C12.1822 10.5443 12.7921 10.0499 13.5056 9.75796C14.2191 9.46602 15.0042 9.38964 15.7617 9.53847C16.5191 9.6873 17.2149 10.0547 17.761 10.5941C18.3071 11.1335 18.6789 11.8208 18.8296 12.569C18.9803 13.3172 18.903 14.0928 18.6074 14.7976C18.3119 15.5024 17.8114 16.1048 17.1692 16.5286C16.5271 16.9524 15.7722 17.1786 14.9999 17.1786C13.9643 17.1786 12.9711 16.7723 12.2388 16.0489C11.5065 15.3256 11.0951 14.3445 11.0951 13.3215Z" fill="black"/>
</g>
<defs>
<clipPath id="clip0">
<rect width="30" height="30" fill="white" transform="translate(0 0.5)"/>
</clipPath>
</defs>
</svg>
