<svg width="30" height="31" viewBox="0 0 30 31" fill="none" xmlns="http://www.w3.org/2000/svg">
<g clip-path="url(#clip0)">
<path d="M15 11.7591C15.399 11.7596 15.7951 11.8252 16.1726 11.9532L11.4623 16.7394C11.3358 16.3543 11.2712 15.9519 11.2709 15.5469C11.2589 14.5547 11.6449 13.5984 12.3442 12.8881C13.0434 12.1779 13.9987 11.7718 15 11.7591ZM9.5736 18.6567C8.27943 17.8154 7.08272 16.8354 6.00513 15.7344C7.34716 14.3621 11.0751 10.9503 15 10.9503C15.6448 10.9544 16.2865 11.0398 16.9096 11.2043L18.266 9.82655C17.2193 9.44644 16.1147 9.24627 15 9.23467C9.33379 9.23467 4.4123 14.93 4.2066 15.1731C4.07316 15.3302 4 15.529 4 15.7344C4 15.9398 4.07316 16.1386 4.2066 16.2958C5.42861 17.6655 6.81884 18.8783 8.34487 19.9059L9.5736 18.6567ZM25.7934 16.2958C25.5866 16.5377 20.6662 22.233 15 22.233C13.7993 22.2184 12.6113 21.9888 11.4931 21.5551L9.4823 23.5988C9.40484 23.6783 9.31204 23.7415 9.20942 23.7846C9.1068 23.8278 8.99646 23.85 8.88498 23.85C8.77351 23.85 8.66317 23.8278 8.56055 23.7846C8.45793 23.7415 8.36513 23.6783 8.28767 23.5988C8.1322 23.4376 8.04498 23.2234 8.04396 23.0004C8.04293 22.7774 8.12818 22.5625 8.28217 22.3998L22.49 7.96154C22.49 7.96154 22.49 7.95282 22.4988 7.94846L22.6924 7.75117C22.7699 7.67172 22.8627 7.60854 22.9653 7.56539C23.0679 7.52224 23.1783 7.5 23.2898 7.5C23.4012 7.5 23.5116 7.52224 23.6142 7.56539C23.7168 7.60854 23.8096 7.67172 23.8871 7.75117C24.046 7.91382 24.1349 8.13135 24.1349 8.35776C24.1349 8.58417 24.046 8.8017 23.8871 8.96435L21.4593 11.431C23.0629 12.4853 24.52 13.7434 25.7934 15.1731C25.9268 15.3302 26 15.529 26 15.7344C26 15.9398 25.9268 16.1386 25.7934 16.2958ZM23.9949 15.7344C22.8628 14.5761 21.5988 13.5519 20.2284 12.6824L18.5487 14.3872C18.6678 14.7624 18.7287 15.1535 18.7291 15.5469C18.7414 16.5393 18.3555 17.4959 17.6562 18.2064C16.9569 18.9169 16.0015 19.3232 15 19.3358C14.612 19.336 14.2265 19.2745 13.8582 19.1538L12.8319 20.1958C13.5354 20.4054 14.2654 20.5155 15 20.5228C18.937 20.5228 22.6561 17.1133 23.9949 15.7399" fill="black"/>
<path d="M23.9949 15.7344C22.8628 14.5761 21.5988 13.5519 20.2284 12.6824L18.5487 14.3872C18.6678 14.7624 18.7287 15.1535 18.7291 15.5469C18.7414 16.5393 18.3555 17.4959 17.6562 18.2064C16.9569 18.9169 16.0015 19.3232 15 19.3358C14.612 19.336 14.2265 19.2745 13.8582 19.1538L12.8319 20.1958C13.5354 20.4054 14.2654 20.5155 15 20.5228C18.937 20.5228 22.6561 17.1133 23.9949 15.7399M15 11.7591C15.399 11.7596 15.7951 11.8252 16.1726 11.9532L11.4623 16.7394C11.3358 16.3543 11.2712 15.9519 11.2709 15.5469C11.2589 14.5547 11.6449 13.5984 12.3442 12.8881C13.0434 12.1779 13.9987 11.7718 15 11.7591ZM9.5736 18.6567C8.27943 17.8154 7.08272 16.8354 6.00513 15.7344C7.34716 14.3621 11.0751 10.9503 15 10.9503C15.6448 10.9544 16.2865 11.0398 16.9096 11.2043L18.266 9.82655C17.2193 9.44644 16.1147 9.24627 15 9.23467C9.33379 9.23467 4.4123 14.93 4.2066 15.1731C4.07316 15.3302 4 15.529 4 15.7344C4 15.9398 4.07316 16.1386 4.2066 16.2958C5.42861 17.6655 6.81884 18.8783 8.34487 19.9059L9.5736 18.6567ZM25.7934 16.2958C25.5866 16.5377 20.6662 22.233 15 22.233C13.7993 22.2184 12.6113 21.9888 11.4931 21.5551L9.4823 23.5988C9.40484 23.6783 9.31204 23.7415 9.20942 23.7846C9.1068 23.8278 8.99646 23.85 8.88498 23.85C8.77351 23.85 8.66317 23.8278 8.56055 23.7846C8.45793 23.7415 8.36513 23.6783 8.28767 23.5988C8.1322 23.4376 8.04498 23.2234 8.04396 23.0004C8.04293 22.7774 8.12818 22.5625 8.28217 22.3998L22.49 7.96154C22.49 7.96154 22.49 7.95282 22.4988 7.94846L22.6924 7.75117C22.7699 7.67172 22.8627 7.60854 22.9653 7.56539C23.0679 7.52224 23.1783 7.5 23.2898 7.5C23.4012 7.5 23.5116 7.52224 23.6142 7.56539C23.7168 7.60854 23.8096 7.67172 23.8871 7.75117C24.046 7.91382 24.1349 8.13135 24.1349 8.35776C24.1349 8.58417 24.046 8.8017 23.8871 8.96435L21.4593 11.431C23.0629 12.4853 24.52 13.7434 25.7934 15.1731C25.9268 15.3302 26 15.529 26 15.7344C26 15.9398 25.9268 16.1386 25.7934 16.2958Z" stroke="black" stroke-width="0.5"/>
</g>
<defs>
<clipPath id="clip0">
<rect width="30" height="30" fill="white" transform="translate(0 0.5)"/>
</clipPath>
</defs>
</svg>
