<svg width="30" height="31" viewBox="0 0 30 31" fill="none" xmlns="http://www.w3.org/2000/svg">
<g clip-path="url(#clip0)">
<path fillRule="evenodd" clipRule="evenodd" d="M10 6.5H20C22.2091 6.5 24 8.29086 24 10.5V20.5C24 22.7091 22.2091 24.5 20 24.5H10C7.79086 24.5 6 22.7091 6 20.5V10.5C6 8.29086 7.79086 6.5 10 6.5ZM15.5 10.5H14.5C14.2239 10.5 14 10.7239 14 11V14.5H12.04C11.9459 14.4999 11.8536 14.5265 11.7738 14.5765C11.6941 14.6266 11.6301 14.6982 11.5892 14.783C11.5484 14.8679 11.5323 14.9626 11.5429 15.0561C11.5535 15.1497 11.5903 15.2384 11.649 15.312L14.609 19.012C14.6559 19.0705 14.7153 19.1178 14.7829 19.1503C14.8505 19.1828 14.9245 19.1997 14.9995 19.1997C15.0745 19.1997 15.1486 19.1828 15.2162 19.1503C15.2838 19.1178 15.3432 19.0705 15.39 19.012L18.35 15.312C18.4087 15.2385 18.4455 15.1499 18.4561 15.0564C18.4667 14.9629 18.4508 14.8683 18.41 14.7835C18.3693 14.6987 18.3054 14.6271 18.2258 14.5769C18.1462 14.5268 18.0541 14.5001 17.96 14.5H16V11C16 10.7239 15.7762 10.5 15.5 10.5Z" fill="black"/>
</g>
<defs>
<clipPath id="clip0">
<rect width="30" height="30" fill="white" transform="translate(0 0.5)"/>
</clipPath>
</defs>
</svg>
