<svg width="30" height="31" viewBox="0 0 30 31" fill="none" xmlns="http://www.w3.org/2000/svg">
<g clip-path="url(#clip0)">
<path d="M18.4494 24.5H11.2966C10.9526 24.4987 10.6231 24.3622 10.3802 24.1205C10.1372 23.8788 10.0005 23.5514 10 23.21V10.307C10.138 10.11 13.387 5.5 14.8216 5.5C16.2753 5.5 19.7147 10.259 19.75 10.307V23.207C19.7501 23.3767 19.7166 23.5447 19.6513 23.7015C19.586 23.8583 19.4903 24.0008 19.3695 24.1209C19.2487 24.2409 19.1053 24.3362 18.9474 24.4013C18.7896 24.4663 18.6203 24.4999 18.4494 24.5ZM14.7612 8.016C14.4623 8.016 14.1701 8.10397 13.9216 8.2688C13.6731 8.43362 13.4794 8.66789 13.365 8.94197C13.2507 9.21606 13.2207 9.51766 13.279 9.80864C13.3373 10.0996 13.4813 10.3669 13.6926 10.5767C13.9039 10.7864 14.1732 10.9293 14.4663 10.9872C14.7595 11.0451 15.0633 11.0154 15.3395 10.9018C15.6156 10.7883 15.8516 10.596 16.0176 10.3494C16.1837 10.1027 16.2723 9.81267 16.2723 9.516C16.2723 9.11818 16.1131 8.73664 15.8297 8.45534C15.5463 8.17404 15.1619 8.016 14.7612 8.016Z" fill="black"/>
</g>
<defs>
<clipPath id="clip0">
<rect width="30" height="30" fill="white" transform="translate(0 0.5)"/>
</clipPath>
</defs>
</svg>
