<svg width="24" height="25" viewBox="0 0 24 25" fill="none" xmlns="http://www.w3.org/2000/svg">
<path d="M0 6.8445C0.0031578 6.58137 0.109907 6.33009 0.297102 6.14514C0.484298 5.96019 0.73685 5.85648 1 5.8565H1.981V3.5045C1.981 3.23809 2.08683 2.98259 2.27521 2.79421C2.46359 2.60583 2.71909 2.5 2.9855 2.5C3.25191 2.5 3.50741 2.60583 3.69579 2.79421C3.88417 2.98259 3.99 3.23809 3.99 3.5045V5.8565H4.971C5.2329 5.8565 5.48408 5.96054 5.66927 6.14573C5.85446 6.33092 5.9585 6.5821 5.9585 6.844C5.9585 7.1059 5.85446 7.35708 5.66927 7.54227C5.48408 7.72746 5.2329 7.8315 4.971 7.8315H3.99V20.5315C3.99 20.7979 3.88417 21.0534 3.69579 21.2418C3.50741 21.4302 3.25191 21.536 2.9855 21.536C2.71909 21.536 2.46359 21.4302 2.27521 21.2418C2.08683 21.0534 1.981 20.7979 1.981 20.5315V7.8315H1C0.737021 7.83152 0.484617 7.72795 0.29745 7.54322C0.110283 7.35848 0.00341873 7.10746 0 6.8445ZM8.979 17.0545C8.98216 16.7914 9.08891 16.5401 9.2761 16.3551C9.4633 16.1702 9.71585 16.0665 9.979 16.0665H10.96V3.5045C10.96 3.23809 11.0658 2.98259 11.2542 2.79421C11.4426 2.60583 11.6981 2.5 11.9645 2.5C12.2309 2.5 12.4864 2.60583 12.6748 2.79421C12.8632 2.98259 12.969 3.23809 12.969 3.5045V16.0675H13.95C14.0823 16.0633 14.2141 16.0857 14.3376 16.1334C14.4611 16.1812 14.5738 16.2532 14.6688 16.3454C14.7639 16.4375 14.8396 16.5478 14.8912 16.6697C14.9428 16.7916 14.9694 16.9226 14.9694 17.055C14.9694 17.1874 14.9428 17.3184 14.8912 17.4403C14.8396 17.5622 14.7639 17.6725 14.6688 17.7646C14.5738 17.8568 14.4611 17.9288 14.3376 17.9766C14.2141 18.0243 14.0823 18.0467 13.95 18.0425H12.97V20.5305C12.97 20.7969 12.8642 21.0524 12.6758 21.2408C12.4874 21.4292 12.2319 21.535 11.9655 21.535C11.6991 21.535 11.4436 21.4292 11.2552 21.2408C11.0668 21.0524 10.961 20.7969 10.961 20.5305V18.0405H9.98C9.71702 18.0405 9.46462 17.937 9.27745 17.7522C9.09028 17.5675 8.98342 17.3165 8.98 17.0535L8.979 17.0545ZM18.02 9.5595C18.0232 9.29637 18.1299 9.04509 18.3171 8.86014C18.5043 8.67519 18.7568 8.57148 19.02 8.5715H20V3.5045C20 3.23809 20.1058 2.98259 20.2942 2.79421C20.4826 2.60583 20.7381 2.5 21.0045 2.5C21.2709 2.5 21.5264 2.60583 21.7148 2.79421C21.9032 2.98259 22.009 3.23809 22.009 3.5045V8.5675H22.99C23.1197 8.5675 23.2482 8.59306 23.3681 8.64271C23.488 8.69236 23.5969 8.76513 23.6886 8.85688C23.7804 8.94862 23.8531 9.05754 23.9028 9.17741C23.9524 9.29728 23.978 9.42575 23.978 9.5555C23.978 9.68525 23.9524 9.81372 23.9028 9.93359C23.8531 10.0535 23.7804 10.1624 23.6886 10.2541C23.5969 10.3459 23.488 10.4186 23.3681 10.4683C23.2482 10.5179 23.1197 10.5435 22.99 10.5435H22.01V20.5255C22.01 20.7919 21.9042 21.0474 21.7158 21.2358C21.5274 21.4242 21.2719 21.53 21.0055 21.53C20.7391 21.53 20.4836 21.4242 20.2952 21.2358C20.1068 21.0474 20.001 20.7919 20.001 20.5255V10.5475H19.02C18.7568 10.5475 18.5043 10.4438 18.3171 10.2589C18.1299 10.0739 18.0232 9.82263 18.02 9.5595Z" fill="black"/>
</svg>
