<svg width="24" height="25" viewBox="0 0 24 25" fill="none" xmlns="http://www.w3.org/2000/svg">
<g clip-path="url(#clip0)">
<path d="M15.1584 16.762C15.1645 17.5099 14.8738 18.2297 14.3501 18.7635C13.8263 19.2974 13.1122 19.6018 12.3644 19.61H10.2734C10.0461 19.61 9.82812 19.5197 9.6674 19.359C9.50669 19.1983 9.4164 18.9803 9.4164 18.753C9.4164 18.5257 9.50669 18.3077 9.6674 18.147C9.82812 17.9863 10.0461 17.896 10.2734 17.896H12.3644C12.6652 17.896 12.9536 17.7765 13.1663 17.5639C13.3789 17.3512 13.4984 17.0628 13.4984 16.762C13.4984 16.4612 13.3789 16.1728 13.1663 15.9601C12.9536 15.7475 12.6652 15.628 12.3644 15.628H11.5814C10.8255 15.628 10.1006 15.3277 9.56614 14.7933C9.03166 14.2588 8.73139 13.5339 8.73139 12.778C8.73139 12.0221 9.03166 11.2972 9.56614 10.7627C10.1006 10.2283 10.8255 9.928 11.5814 9.928H13.6734C13.9007 9.928 14.1187 10.0183 14.2794 10.179C14.4401 10.3397 14.5304 10.5577 14.5304 10.785C14.5304 11.0123 14.4401 11.2303 14.2794 11.391C14.1187 11.5517 13.9007 11.642 13.6734 11.642H11.5824C11.2873 11.6508 11.0073 11.7741 10.8017 11.9859C10.5961 12.1977 10.4811 12.4813 10.4811 12.7765C10.4811 13.0717 10.5961 13.3553 10.8017 13.5671C11.0073 13.7789 11.2873 13.9022 11.5824 13.911H12.3654C13.1132 13.9192 13.8273 14.2236 14.3511 14.7575C14.8749 15.2913 15.1655 16.0111 15.1594 16.759L15.1584 16.762ZM23.0004 16.672C23.0249 13.7276 21.8806 10.8936 19.8185 8.79173C17.7564 6.68985 14.9448 5.49167 12.0004 5.46C9.05595 5.49141 6.24419 6.68951 4.182 8.79144C2.11981 10.8934 0.975598 13.7275 1.00039 16.672C1.00039 23.689 7.27839 24.5 12.0004 24.5C16.7224 24.5 23.0004 23.689 23.0004 16.672ZM21.3184 16.672C21.3184 20.957 18.5314 22.786 11.9994 22.786C5.46739 22.786 2.68139 20.958 2.68139 16.672C2.6606 14.1776 3.63004 11.7768 5.37706 9.99618C7.12408 8.2156 9.50603 7.20066 12.0004 7.174C14.4951 7.20066 16.8774 8.21587 18.6244 9.99689C20.3715 11.7779 21.3407 14.1792 21.3194 16.674L21.3184 16.672ZM12.8004 6.934L17.6774 1.964C17.795 1.84274 17.8749 1.68989 17.9072 1.52405C17.9395 1.35821 17.9229 1.18656 17.8594 1.03C17.7972 0.873824 17.6897 0.739858 17.5507 0.645388C17.4116 0.550917 17.2475 0.500277 17.0794 0.5H7.3264C7.1589 0.50066 6.99543 0.551379 6.85697 0.645641C6.71852 0.739904 6.61141 0.873406 6.54939 1.029C6.48562 1.18552 6.46887 1.35723 6.50119 1.52312C6.53352 1.68902 6.61352 1.84188 6.73139 1.963L11.6074 6.933C11.6847 7.01238 11.7772 7.07546 11.8793 7.11854C11.9814 7.16161 12.0911 7.1838 12.2019 7.1838C12.3127 7.1838 12.4224 7.16161 12.5245 7.11854C12.6266 7.07546 12.7191 7.01238 12.7964 6.933" fill="black"/>
</g>
<defs>
<clipPath id="clip0">
<rect width="24" height="24" fill="white" transform="translate(0 0.5)"/>
</clipPath>
</defs>
</svg>
