<svg width="30" height="31" viewBox="0 0 30 31" fill="none" xmlns="http://www.w3.org/2000/svg">
<g clip-path="url(#clip0)">
<path opacity="0.999" d="M15.3013 24.5H5.00016V15.6401C4.99284 14.4261 5.23647 13.2238 5.71558 12.1096C6.19469 10.9953 6.89881 9.99343 7.78326 9.16755C9.75101 7.39766 12.3132 6.4453 14.952 6.50292C17.6408 6.43899 20.2497 7.42551 22.2312 9.25542C23.1117 10.1037 23.8107 11.124 24.2855 12.2538C24.7602 13.3835 25.0007 14.5989 24.9922 15.8254C25.0415 16.9669 24.8578 18.1065 24.4524 19.1739C24.047 20.2412 23.4286 21.2137 22.6352 22.0312C20.9464 23.669 18.479 24.5 15.3013 24.5ZM10.0255 19.3581C9.68673 19.3581 9.36183 19.4935 9.12227 19.7346C8.88271 19.9756 8.74813 20.3025 8.74813 20.6433C8.74813 20.9842 8.88271 21.3111 9.12227 21.5521C9.36183 21.7931 9.68673 21.9285 10.0255 21.9285H12.4709C12.8096 21.9285 13.1345 21.7931 13.3741 21.5521C13.6137 21.3111 13.7482 20.9842 13.7482 20.6433C13.7482 20.3025 13.6137 19.9756 13.3741 19.7346C13.1345 19.4935 12.8096 19.3581 12.4709 19.3581H10.0255ZM10.0255 15.5025C9.85777 15.5025 9.69166 15.5358 9.53668 15.6004C9.3817 15.6649 9.24089 15.7596 9.12227 15.8789C9.00365 15.9983 8.90956 16.14 8.84537 16.2959C8.78117 16.4518 8.74813 16.6189 8.74813 16.7877C8.74813 16.9565 8.78117 17.1236 8.84537 17.2795C8.90956 17.4355 9.00365 17.5772 9.12227 17.6965C9.24089 17.8158 9.3817 17.9105 9.53668 17.9751C9.69166 18.0397 9.85777 18.0729 10.0255 18.0729H19.9647C20.3035 18.0729 20.6284 17.9375 20.8679 17.6965C21.1075 17.4555 21.2421 17.1286 21.2421 16.7877C21.2421 16.4469 21.1075 16.12 20.8679 15.8789C20.6284 15.6379 20.3035 15.5025 19.9647 15.5025H10.0255ZM10.0255 11.6459C9.68673 11.6459 9.36183 11.7813 9.12227 12.0223C8.88271 12.2633 8.74813 12.5902 8.74813 12.9311C8.74813 13.2719 8.88271 13.5988 9.12227 13.8398C9.36183 14.0809 9.68673 14.2163 10.0255 14.2163H17.4657C17.8045 14.2163 18.1294 14.0809 18.3689 13.8398C18.6085 13.5988 18.7431 13.2719 18.7431 12.9311C18.7431 12.5902 18.6085 12.2633 18.3689 12.0223C18.1294 11.7813 17.8045 11.6459 17.4657 11.6459H10.0255Z" fill="black"/>
</g>
<defs>
<clipPath id="clip0">
<rect width="30" height="30" fill="white" transform="translate(0 0.5)"/>
</clipPath>
</defs>
</svg>
