<svg width="30" height="31" viewBox="0 0 30 31" fill="none" xmlns="http://www.w3.org/2000/svg">
<g clip-path="url(#clip0)">
<path d="M22.4587 10.5063C23.1464 9.81855 23.1464 8.70352 22.4587 8.0158C21.771 7.32807 20.6559 7.32807 19.9682 8.0158L7.5158 20.4682C6.82807 21.1559 6.82807 22.271 7.5158 22.9587C8.20352 23.6464 9.31855 23.6464 10.0063 22.9587L22.4587 10.5063Z" fill="black"/>
<path d="M19.9182 23.5004C21.6202 23.5004 23 22.1206 23 20.4186C23 18.7165 21.6202 17.3368 19.9182 17.3368C18.2161 17.3368 16.8364 18.7165 16.8364 20.4186C16.8364 22.1206 18.2161 23.5004 19.9182 23.5004Z" fill="black"/>
<path d="M13.3143 10.7329C13.3143 12.4349 11.9345 13.8147 10.2325 13.8147C8.53045 13.8147 7.15068 12.4349 7.15068 10.7329C7.15068 9.03085 8.53045 7.65107 10.2325 7.65107C11.9345 7.65107 13.3143 9.03085 13.3143 10.7329Z" fill="black"/>
</g>
<defs>
<clipPath id="clip0">
<rect width="30" height="30" fill="white" transform="translate(0 0.5)"/>
</clipPath>
</defs>
</svg>
