<svg width="24" height="25" viewBox="0 0 24 25" fill="none" xmlns="http://www.w3.org/2000/svg">
<path d="M17.272 19.724V7.943C17.272 4.968 18.724 3.5 20.658 3.5C22.549 3.5 24 4.968 24 7.943V16.012C24 19.293 22.505 20.5 20.614 20.5C19.4612 20.4534 18.3274 20.1902 17.272 19.724ZM8.653 19.724V11.7C8.653 8.724 10.104 7.256 12.039 7.256C13.93 7.256 15.381 8.724 15.381 11.7V16.015C15.381 19.293 13.886 20.5 12 20.5C10.8458 20.4539 9.71065 20.1907 8.654 19.724H8.653ZM0 19.724V15.487C0 12.511 1.452 11.043 3.386 11.043C5.277 11.043 6.728 12.511 6.728 15.487V16.012C6.728 19.293 5.234 20.5 3.342 20.5C2.18916 20.4534 1.05541 20.1902 0 19.724H0Z" fill="black"/>
</svg>
