<svg width="24" height="25" viewBox="0 0 24 25" fill="none" xmlns="http://www.w3.org/2000/svg">
<g clip-path="url(#clip0)">
<path d="M16.929 13.3108C18.0318 12.3144 18.8069 11.0073 19.152 9.56171C19.4971 8.1161 19.3961 6.59984 18.8623 5.21277C18.3285 3.8257 17.387 2.63292 16.1618 1.79162C14.9366 0.950323 13.4852 0.5 11.999 0.5C10.5128 0.5 9.06141 0.950323 7.83621 1.79162C6.611 2.63292 5.66947 3.8257 5.13568 5.21277C4.60189 6.59984 4.5009 8.1161 4.84602 9.56171C5.19115 11.0073 5.96619 12.3144 7.069 13.3108C5.00618 14.0327 3.21829 15.3771 1.95209 17.1585C0.685893 18.9398 0.00381721 21.0703 0 23.2558C0 23.5892 0.132434 23.9089 0.368167 24.1446C0.6039 24.3803 0.923623 24.5128 1.257 24.5128C1.59038 24.5128 1.9101 24.3803 2.14583 24.1446C2.38157 23.9089 2.514 23.5892 2.514 23.2558C2.51612 21.1257 3.36323 19.0834 4.86944 17.5772C6.37565 16.071 8.4179 15.2239 10.548 15.2218H13.448C15.5781 15.2239 17.6203 16.071 19.1266 17.5772C20.6328 19.0834 21.4799 21.1257 21.482 23.2558C21.482 23.5892 21.6144 23.9089 21.8502 24.1446C22.0859 24.3803 22.4056 24.5128 22.739 24.5128C23.0724 24.5128 23.3921 24.3803 23.6278 24.1446C23.8636 23.9089 23.996 23.5892 23.996 23.2558C23.9922 21.07 23.31 18.9393 22.0436 17.1578C20.7772 15.3763 18.9891 14.0317 16.926 13.3098" fill="black"/>
</g>
<defs>
<clipPath id="clip0">
<rect width="24" height="24" fill="white" transform="translate(0 0.5)"/>
</clipPath>
</defs>
</svg>
