<svg width="30" height="31" viewBox="0 0 30 31" fill="none" xmlns="http://www.w3.org/2000/svg">
<g clip-path="url(#clip0)">
<path d="M20.0799 18.42C20.0799 19.1733 19.9133 19.8533 19.5799 20.46C19.2533 21.0666 18.7833 21.5666 18.1699 21.96C17.5633 22.3533 16.8533 22.61 16.0399 22.73V24.86H13.7999V22.7C12.5999 22.4933 11.6166 22.0133 10.8499 21.26C10.0899 20.5 9.61994 19.5466 9.43994 18.4L12.4999 17.64C12.6399 18.4266 12.9366 19.02 13.3899 19.42C13.8433 19.82 14.4266 20.02 15.1399 20.02C15.6666 20.02 16.0999 19.8966 16.4399 19.65C16.7866 19.3966 16.9599 19.0533 16.9599 18.62C16.9599 18.3533 16.8799 18.12 16.7199 17.92C16.5599 17.7133 16.3033 17.5133 15.9499 17.32C15.6033 17.1266 15.1199 16.9133 14.4999 16.68C13.5333 16.3066 12.7533 15.91 12.1599 15.49C11.5733 15.0633 11.1399 14.58 10.8599 14.04C10.5799 13.5 10.4399 12.8733 10.4399 12.16C10.4399 11.5133 10.5766 10.9233 10.8499 10.39C11.1233 9.85663 11.5133 9.40997 12.0199 9.04997C12.5266 8.68997 13.1199 8.4433 13.7999 8.30997V6.33997H16.0399V8.28997C16.7799 8.42997 17.4333 8.71997 17.9999 9.15997C18.5733 9.5933 19.0399 10.1733 19.3999 10.9L16.8999 12.42C16.6333 11.9533 16.3299 11.5966 15.9899 11.35C15.6566 11.1033 15.2933 10.98 14.8999 10.98C14.5333 10.98 14.2199 11.0866 13.9599 11.3C13.7066 11.5066 13.5799 11.7733 13.5799 12.1C13.5799 12.34 13.6533 12.5566 13.7999 12.75C13.9466 12.9433 14.2033 13.1433 14.5699 13.35C14.9366 13.5566 15.4533 13.7866 16.1199 14.04C17.0333 14.3866 17.7766 14.76 18.3499 15.16C18.9299 15.5533 19.3633 16.0166 19.6499 16.55C19.9366 17.0766 20.0799 17.7 20.0799 18.42Z" fill="black"/>
</g>
<defs>
<clipPath id="clip0">
<rect width="30" height="30" fill="white" transform="translate(0 0.5)"/>
</clipPath>
</defs>
</svg>
