<svg width="30" height="31" viewBox="0 0 30 31" fill="none" xmlns="http://www.w3.org/2000/svg">
<g clip-path="url(#clip0)">
<path d="M24.5932 3.5H5.40684C4.71163 3.56613 4.07033 3.90337 3.62157 4.43882C3.1728 4.97427 2.9526 5.66494 3.00855 6.36154V24.6385C2.95284 25.335 3.17313 26.0255 3.62185 26.5609C4.07057 27.0963 4.71172 27.4336 5.40684 27.5H24.5932C25.2883 27.4336 25.9294 27.0963 26.3781 26.5609C26.8269 26.0255 27.0472 25.335 26.9914 24.6385V6.36154C27.0474 5.66494 26.8272 4.97427 26.3784 4.43882C25.9297 3.90337 25.2884 3.56613 24.5932 3.5ZM10.9294 23.5622C10.9491 23.8109 10.8704 24.0575 10.71 24.2487C10.5497 24.4399 10.3207 24.5603 10.0724 24.584H6.87441C6.62614 24.5603 6.39713 24.4399 6.23681 24.2487C6.07649 24.0575 5.99771 23.8109 6.01749 23.5622V21.6135C5.99771 21.3647 6.07649 21.1182 6.23681 20.927C6.39713 20.7358 6.62614 20.6154 6.87441 20.5917H10.0715C10.3198 20.6154 10.5488 20.7358 10.7091 20.927C10.8694 21.1182 10.9482 21.3647 10.9284 21.6135L10.9294 23.5622ZM10.9294 17.708C10.9494 17.9571 10.8706 18.204 10.7101 18.3954C10.5495 18.5869 10.3201 18.7073 10.0715 18.7308H6.87441C6.62614 18.7071 6.39713 18.5867 6.23681 18.3955C6.07649 18.2043 5.99771 17.9577 6.01749 17.7089V15.7612C5.99771 15.5124 6.07649 15.2659 6.23681 15.0747C6.39713 14.8835 6.62614 14.7631 6.87441 14.7394H10.0715C10.3198 14.7631 10.5488 14.8835 10.7091 15.0747C10.8694 15.2659 10.9482 15.5124 10.9284 15.7612L10.9294 17.708ZM10.9294 11.8538C10.9494 12.1027 10.8707 12.3494 10.7103 12.5406C10.55 12.7319 10.3208 12.8522 10.0724 12.8757H6.87441C6.62614 12.852 6.39713 12.7316 6.23681 12.5404C6.07649 12.3492 5.99771 12.1026 6.01749 11.8538V9.90615C5.99771 9.65736 6.07649 9.41077 6.23681 9.2196C6.39713 9.02842 6.62614 8.908 6.87441 8.88431H10.0715C10.32 8.90754 10.5494 9.0278 10.71 9.21906C10.8706 9.41031 10.9494 9.65717 10.9294 9.90615V11.8538ZM17.5394 23.5622C17.5592 23.8111 17.4803 24.0578 17.3198 24.249C17.1592 24.4402 16.93 24.5605 16.6816 24.584H13.4835C13.2353 24.5603 13.0063 24.4399 12.8459 24.2487C12.6856 24.0575 12.6068 23.8109 12.6266 23.5622V21.6135C12.6068 21.3647 12.6856 21.1182 12.8459 20.927C13.0063 20.7358 13.2353 20.6154 13.4835 20.5917H16.6816C16.93 20.6152 17.1592 20.7355 17.3198 20.9267C17.4803 21.1179 17.5592 21.3646 17.5394 21.6135V23.5622ZM17.5394 17.708C17.5592 17.9569 17.4803 18.2037 17.3198 18.3949C17.1592 18.5861 16.93 18.7064 16.6816 18.7298H13.4835C13.2353 18.7062 13.0063 18.5857 12.8459 18.3946C12.6856 18.2034 12.6068 17.9568 12.6266 17.708V15.7603C12.6068 15.5115 12.6856 15.2649 12.8459 15.0738C13.0063 14.8826 13.2353 14.7621 13.4835 14.7385H16.6816C16.93 14.7619 17.1592 14.8823 17.3198 15.0735C17.4803 15.2647 17.5592 15.5114 17.5394 15.7603V17.708ZM17.5394 11.8538C17.5592 12.1028 17.4803 12.3495 17.3198 12.5407C17.1592 12.7319 16.93 12.8522 16.6816 12.8757H13.4835C13.2352 12.8522 13.006 12.7319 12.8457 12.5406C12.6853 12.3494 12.6066 12.1027 12.6266 11.8538V9.90615C12.6066 9.65731 12.6853 9.41059 12.8457 9.21936C13.006 9.02813 13.2352 8.90776 13.4835 8.88431H16.6816C16.93 8.90777 17.1592 9.0281 17.3198 9.2193C17.4803 9.4105 17.5592 9.65722 17.5394 9.90615V11.8538ZM24.1486 23.5622C24.1683 23.8109 24.0895 24.0575 23.9292 24.2487C23.7689 24.4399 23.5399 24.5603 23.2916 24.584H20.0936C19.8453 24.5603 19.6163 24.4399 19.456 24.2487C19.2957 24.0575 19.2169 23.8109 19.2367 23.5622V21.6135C19.2169 21.3647 19.2957 21.1182 19.456 20.927C19.6163 20.7358 19.8453 20.6154 20.0936 20.5917H23.2916C23.5399 20.6154 23.7689 20.7358 23.9292 20.927C24.0895 21.1182 24.1683 21.3647 24.1486 21.6135V23.5622ZM24.1486 17.708C24.1683 17.9568 24.0895 18.2034 23.9292 18.3946C23.7689 18.5857 23.5399 18.7062 23.2916 18.7298H20.0936C19.8453 18.7062 19.6163 18.5857 19.456 18.3946C19.2957 18.2034 19.2169 17.9568 19.2367 17.708V15.7603C19.2169 15.5115 19.2957 15.2649 19.456 15.0738C19.6163 14.8826 19.8453 14.7621 20.0936 14.7385H23.2916C23.5399 14.7621 23.7689 14.8826 23.9292 15.0738C24.0895 15.2649 24.1683 15.5115 24.1486 15.7603V17.708ZM24.1486 11.8538C24.1683 12.1026 24.0895 12.3492 23.9292 12.5404C23.7689 12.7316 23.5399 12.852 23.2916 12.8757H20.0936C19.8453 12.852 19.6163 12.7316 19.456 12.5404C19.2957 12.3492 19.2169 12.1026 19.2367 11.8538V9.90615C19.2169 9.65736 19.2957 9.41077 19.456 9.2196C19.6163 9.02842 19.8453 8.908 20.0936 8.88431H23.2916C23.5399 8.908 23.7689 9.02842 23.9292 9.2196C24.0895 9.41077 24.1683 9.65736 24.1486 9.90615V11.8538Z" fill="black"/>
</g>
<defs>
<clipPath id="clip0">
<rect width="30" height="30" fill="white" transform="translate(0 0.5)"/>
</clipPath>
</defs>
</svg>
