<svg width="24" height="25" viewBox="0 0 24 25" fill="none" xmlns="http://www.w3.org/2000/svg">
<g clip-path="url(#clip0)">
<path d="M4 24.5V1.75C4 1.41848 4.1317 1.10054 4.36612 0.866117C4.60054 0.631696 4.91848 0.5 5.25 0.5C5.58152 0.5 5.89946 0.631696 6.13388 0.866117C6.3683 1.10054 6.5 1.41848 6.5 1.75V23.25C6.5 23.4142 6.46763 23.5769 6.40475 23.7286C6.34187 23.8803 6.24971 24.0182 6.13353 24.1342C6.01735 24.2503 5.87943 24.3424 5.72766 24.4051C5.57589 24.4679 5.41324 24.5001 5.249 24.5H4ZM7.5 11.5V2.5H20L15.608 6.9L20 11.5H7.5Z" fill="black"/>
</g>
<defs>
<clipPath id="clip0">
<rect width="24" height="24" fill="white" transform="translate(0 0.5)"/>
</clipPath>
</defs>
</svg>
